<?xml version="1.0" encoding="UTF-8" standalone="no"?>
<!DOCTYPE svg PUBLIC "-//W3C//DTD SVG 1.1//EN" "http://www.w3.org/Graphics/SVG/1.1/DTD/svg11.dtd">
<svg version="1.1" xmlns="http://www.w3.org/2000/svg" xmlns:xlink="http://www.w3.org/1999/xlink" preserveAspectRatio="xMidYMid meet" viewBox="0 0 640 640" width="150" height="150"><defs><path d="M266.94 359.52L215.92 288.54L176.12 363.76L128.16 292.78L70 363.76L100.61 398.71L72.04 427.32L98.57 452.74L72.04 477.1L100.61 512.06L76.12 541.72L100.61 571.38L128.16 541.72L153.67 576.68L176.12 541.72L197.55 571.38L215.92 541.72L243.47 571.38L266.94 541.72L291.43 571.38L346.53 503.59L291.43 449.56L349.59 391.3L291.43 320.25L349.59 253.59L291.43 194.26L349.59 140.24L287.35 76.68L266.94 106.34L243.47 76.68L223.06 106.34L201.63 76.68L176.12 106.34L153.67 76.68L128.16 106.34L100.61 76.68" id="c1mvp1Y6rx"></path><path d="M102.65 76.68L70 110.58L102.65 142.36L76.12 174.14L102.65 196.38L70 226.04L102.65 257.82L76.12 289.6L128.16 358.46L176.12 289.6L220 363.76L265.92 289.6L290.41 320.25L265.92 358.46" id="b3n10cMhgG"></path><path d="M373.06 359.52L424.08 288.54L463.88 363.76L511.84 292.78L570 363.76L539.39 398.71L567.96 427.32L541.43 452.74L567.96 477.1L539.39 512.06L563.88 541.72L539.39 571.38L511.84 541.72L486.33 576.68L463.88 541.72L442.45 571.38L424.08 541.72L396.53 571.38L373.06 541.72L348.57 571.38L293.47 503.59L348.57 449.56L290.41 391.3L348.57 320.25L290.41 253.59L348.57 194.26L290.41 140.24L352.65 76.68L373.06 106.34L396.53 76.68L416.94 106.34L438.37 76.68L463.88 106.34L486.33 76.68L511.84 106.34L539.39 76.68" id="atQ4ZIcnB"></path><path d="M537.35 76.68L570 110.58L537.35 142.36L563.88 174.14L537.35 196.38L570 226.04L537.35 257.82L563.88 289.6L511.84 358.46L463.88 289.6L420 363.76L374.08 289.6L349.59 320.25L374.08 358.46" id="f7me9FPi5s"></path><path d="M166.94 148.71C166.94 162.75 155.97 174.14 142.45 174.14C128.93 174.14 117.96 162.75 117.96 148.71C117.96 134.68 128.93 123.29 142.45 123.29C155.97 123.29 166.94 134.68 166.94 148.71Z" id="aPFGJXAu9"></path><path d="M166.94 253.59C166.94 267.62 155.97 279.01 142.45 279.01C128.93 279.01 117.96 267.62 117.96 253.59C117.96 239.55 128.93 228.16 142.45 228.16C155.97 228.16 166.94 239.55 166.94 253.59Z" id="fkbe1LVo6"></path><path d="M219.49 196.91C219.49 210.94 208.52 222.34 195 222.34C181.48 222.34 170.51 210.94 170.51 196.91C170.51 182.88 181.48 171.49 195 171.49C208.52 171.49 219.49 182.88 219.49 196.91Z" id="e1OHYjdHpf"></path><path d="M272.04 148.71C272.04 162.75 261.07 174.14 247.55 174.14C234.03 174.14 223.06 162.75 223.06 148.71C223.06 134.68 234.03 123.29 247.55 123.29C261.07 123.29 272.04 134.68 272.04 148.71Z" id="c39YJVvU2"></path><path d="M272.04 253.59C272.04 267.62 261.07 279.01 247.55 279.01C234.03 279.01 223.06 267.62 223.06 253.59C223.06 239.55 234.03 228.16 247.55 228.16C261.07 228.16 272.04 239.55 272.04 253.59Z" id="aln4ywAe"></path><path d="M414.05 145.68C413.87 159.71 402.75 170.95 389.23 170.76C375.72 170.57 364.89 159.03 365.07 145C365.25 130.97 376.37 119.73 389.89 119.92C403.4 120.1 414.23 131.65 414.05 145.68Z" id="aalY6PDlb"></path><path d="M412.69 250.54C412.51 264.57 401.39 275.81 387.88 275.62C374.36 275.43 363.54 263.89 363.72 249.86C363.9 235.83 375.02 224.59 388.53 224.78C402.05 224.97 412.87 236.51 412.69 250.54Z" id="b3f6CSDQEU"></path><path d="M465.97 194.61C465.79 208.64 454.67 219.87 441.15 219.69C427.64 219.5 416.81 207.95 417 193.92C417.18 179.89 428.3 168.66 441.81 168.84C455.33 169.03 466.15 180.58 465.97 194.61Z" id="e4bO494uXY"></path><path d="M519.14 147.14C518.96 161.17 507.84 172.41 494.32 172.22C480.81 172.04 469.98 160.49 470.16 146.46C470.35 132.43 481.47 121.19 494.98 121.38C508.5 121.57 519.32 133.11 519.14 147.14Z" id="b1MX37GsA2"></path><path d="M517.78 252.01C517.6 266.04 506.48 277.28 492.97 277.09C479.45 276.9 468.63 265.35 468.81 251.32C468.99 237.29 480.11 226.06 493.63 226.24C507.14 226.43 517.97 237.98 517.78 252.01Z" id="fQ3oAQj1e"></path><path d="M163.54 399.39C163.36 413.42 152.24 424.66 138.72 424.47C125.21 424.28 114.38 412.74 114.56 398.7C114.74 384.67 125.86 373.44 139.38 373.62C152.89 373.81 163.72 385.36 163.54 399.39Z" id="c4WJewAoSa"></path><path d="M162.18 504.25C162 518.28 150.88 529.52 137.37 529.33C123.85 529.14 113.03 517.6 113.21 503.57C113.39 489.54 124.51 478.3 138.02 478.49C151.54 478.68 162.36 490.22 162.18 504.25Z" id="dZTTG0WkL"></path><path d="M215.46 448.31C215.28 462.34 204.16 473.58 190.64 473.39C177.13 473.21 166.3 461.66 166.49 447.63C166.67 433.6 177.79 422.36 191.3 422.55C204.82 422.74 215.64 434.28 215.46 448.31Z" id="d1KA9vcfnJ"></path><path d="M268.63 400.85C268.45 414.88 257.33 426.12 243.81 425.93C230.3 425.74 219.47 414.2 219.65 400.17C219.84 386.14 230.96 374.9 244.47 375.09C257.99 375.28 268.81 386.82 268.63 400.85Z" id="c2IgoQ0rF9"></path><path d="M267.27 505.71C267.09 519.74 255.97 530.98 242.46 530.79C228.94 530.61 218.12 519.06 218.3 505.03C218.48 491 229.6 479.76 243.12 479.95C256.63 480.14 267.46 491.68 267.27 505.71Z" id="a2JJjZ8uc"></path><path d="M414.05 399.39C413.87 413.42 402.75 424.66 389.23 424.47C375.72 424.28 364.89 412.74 365.07 398.7C365.25 384.67 376.37 373.44 389.89 373.62C403.4 373.81 414.23 385.36 414.05 399.39Z" id="cRJoRHl0C"></path><path d="M412.69 504.25C412.51 518.28 401.39 529.52 387.88 529.33C374.36 529.14 363.54 517.6 363.72 503.57C363.9 489.54 375.02 478.3 388.53 478.49C402.05 478.68 412.87 490.22 412.69 504.25Z" id="d1x0jfUJzA"></path><path d="M465.97 448.31C465.79 462.34 454.67 473.58 441.15 473.39C427.64 473.21 416.81 461.66 417 447.63C417.18 433.6 428.3 422.36 441.81 422.55C455.33 422.74 466.15 434.28 465.97 448.31Z" id="drkQlPs9t"></path><path d="M519.14 400.85C518.96 414.88 507.84 426.12 494.32 425.93C480.81 425.74 469.98 414.2 470.16 400.17C470.35 386.14 481.47 374.9 494.98 375.09C508.5 375.28 519.32 386.82 519.14 400.85Z" id="gAdehIw2K"></path><path d="M517.78 505.71C517.6 519.74 506.48 530.98 492.97 530.79C479.45 530.61 468.63 519.06 468.81 505.03C468.99 491 480.11 479.76 493.63 479.95C507.14 480.14 517.97 491.68 517.78 505.71Z" id="bIW2Ri8e4"></path><path d="M320.74 571.02L316.62 82.34" id="c1MJCumDw"></path><path d="M95.71 320.25L540.75 320.25" id="n2Pkx8Ug6K"></path></defs><g><g><g><g><g><use xlink:href="#c1mvp1Y6rx" opacity="1" fill-opacity="0" stroke="#000000" stroke-width="7" stroke-opacity="1"></use></g></g><g><g><use xlink:href="#b3n10cMhgG" opacity="1" fill-opacity="0" stroke="#000000" stroke-width="7" stroke-opacity="1"></use></g></g><g><g><use xlink:href="#atQ4ZIcnB" opacity="1" fill-opacity="0" stroke="#000000" stroke-width="7" stroke-opacity="1"></use></g></g><g><g><use xlink:href="#f7me9FPi5s" opacity="1" fill-opacity="0" stroke="#000000" stroke-width="7" stroke-opacity="1"></use></g></g><g><g><use xlink:href="#aPFGJXAu9" opacity="1" fill="#0f0f50" fill-opacity="1"></use><g><use xlink:href="#aPFGJXAu9" opacity="1" fill-opacity="0" stroke="#000000" stroke-width="7" stroke-opacity="1"></use></g></g><g><use xlink:href="#fkbe1LVo6" opacity="1" fill="#0f0f50" fill-opacity="1"></use><g><use xlink:href="#fkbe1LVo6" opacity="1" fill-opacity="0" stroke="#000000" stroke-width="7" stroke-opacity="1"></use></g></g><g><use xlink:href="#e1OHYjdHpf" opacity="1" fill="#0f0f50" fill-opacity="1"></use><g><use xlink:href="#e1OHYjdHpf" opacity="1" fill-opacity="0" stroke="#000000" stroke-width="7" stroke-opacity="1"></use></g></g><g><use xlink:href="#c39YJVvU2" opacity="1" fill="#0f0f50" fill-opacity="1"></use><g><use xlink:href="#c39YJVvU2" opacity="1" fill-opacity="0" stroke="#000000" stroke-width="7" stroke-opacity="1"></use></g></g><g><use xlink:href="#aln4ywAe" opacity="1" fill="#0f0f50" fill-opacity="1"></use><g><use xlink:href="#aln4ywAe" opacity="1" fill-opacity="0" stroke="#000000" stroke-width="7" stroke-opacity="1"></use></g></g></g><g><g><use xlink:href="#aalY6PDlb" opacity="1" fill="#0f0f50" fill-opacity="1"></use><g><use xlink:href="#aalY6PDlb" opacity="1" fill-opacity="0" stroke="#000000" stroke-width="7" stroke-opacity="1"></use></g></g><g><use xlink:href="#b3f6CSDQEU" opacity="1" fill="#0f0f50" fill-opacity="1"></use><g><use xlink:href="#b3f6CSDQEU" opacity="1" fill-opacity="0" stroke="#000000" stroke-width="7" stroke-opacity="1"></use></g></g><g><use xlink:href="#e4bO494uXY" opacity="1" fill="#0f0f50" fill-opacity="1"></use><g><use xlink:href="#e4bO494uXY" opacity="1" fill-opacity="0" stroke="#000000" stroke-width="7" stroke-opacity="1"></use></g></g><g><use xlink:href="#b1MX37GsA2" opacity="1" fill="#0f0f50" fill-opacity="1"></use><g><use xlink:href="#b1MX37GsA2" opacity="1" fill-opacity="0" stroke="#000000" stroke-width="7" stroke-opacity="1"></use></g></g><g><use xlink:href="#fQ3oAQj1e" opacity="1" fill="#0f0f50" fill-opacity="1"></use><g><use xlink:href="#fQ3oAQj1e" opacity="1" fill-opacity="0" stroke="#000000" stroke-width="7" stroke-opacity="1"></use></g></g></g><g><g><use xlink:href="#c4WJewAoSa" opacity="1" fill="#0f0f50" fill-opacity="1"></use><g><use xlink:href="#c4WJewAoSa" opacity="1" fill-opacity="0" stroke="#000000" stroke-width="7" stroke-opacity="1"></use></g></g><g><use xlink:href="#dZTTG0WkL" opacity="1" fill="#0f0f50" fill-opacity="1"></use><g><use xlink:href="#dZTTG0WkL" opacity="1" fill-opacity="0" stroke="#000000" stroke-width="7" stroke-opacity="1"></use></g></g><g><use xlink:href="#d1KA9vcfnJ" opacity="1" fill="#0f0f50" fill-opacity="1"></use><g><use xlink:href="#d1KA9vcfnJ" opacity="1" fill-opacity="0" stroke="#000000" stroke-width="7" stroke-opacity="1"></use></g></g><g><use xlink:href="#c2IgoQ0rF9" opacity="1" fill="#0f0f50" fill-opacity="1"></use><g><use xlink:href="#c2IgoQ0rF9" opacity="1" fill-opacity="0" stroke="#000000" stroke-width="7" stroke-opacity="1"></use></g></g><g><use xlink:href="#a2JJjZ8uc" opacity="1" fill="#0f0f50" fill-opacity="1"></use><g><use xlink:href="#a2JJjZ8uc" opacity="1" fill-opacity="0" stroke="#000000" stroke-width="7" stroke-opacity="1"></use></g></g></g><g><g><use xlink:href="#cRJoRHl0C" opacity="1" fill="#0f0f50" fill-opacity="1"></use><g><use xlink:href="#cRJoRHl0C" opacity="1" fill-opacity="0" stroke="#000000" stroke-width="7" stroke-opacity="1"></use></g></g><g><use xlink:href="#d1x0jfUJzA" opacity="1" fill="#0f0f50" fill-opacity="1"></use><g><use xlink:href="#d1x0jfUJzA" opacity="1" fill-opacity="0" stroke="#000000" stroke-width="7" stroke-opacity="1"></use></g></g><g><use xlink:href="#drkQlPs9t" opacity="1" fill="#0f0f50" fill-opacity="1"></use><g><use xlink:href="#drkQlPs9t" opacity="1" fill-opacity="0" stroke="#000000" stroke-width="7" stroke-opacity="1"></use></g></g><g><use xlink:href="#gAdehIw2K" opacity="1" fill="#0f0f50" fill-opacity="1"></use><g><use xlink:href="#gAdehIw2K" opacity="1" fill-opacity="0" stroke="#000000" stroke-width="7" stroke-opacity="1"></use></g></g><g><use xlink:href="#bIW2Ri8e4" opacity="1" fill="#0f0f50" fill-opacity="1"></use><g><use xlink:href="#bIW2Ri8e4" opacity="1" fill-opacity="0" stroke="#000000" stroke-width="7" stroke-opacity="1"></use></g></g></g><g><g><use xlink:href="#c1MJCumDw" opacity="1" fill-opacity="0" stroke="#000000" stroke-width="7" stroke-opacity="1"></use></g></g><g><g><use xlink:href="#n2Pkx8Ug6K" opacity="1" fill-opacity="0" stroke="#000000" stroke-width="7" stroke-opacity="1"></use></g></g></g></g></g></svg>