<?xml version="1.0" encoding="UTF-8" standalone="no"?>
<!DOCTYPE svg PUBLIC "-//W3C//DTD SVG 1.1//EN" "http://www.w3.org/Graphics/SVG/1.1/DTD/svg11.dtd">
<svg version="1.1" xmlns="http://www.w3.org/2000/svg" xmlns:xlink="http://www.w3.org/1999/xlink" preserveAspectRatio="xMidYMid meet" viewBox="0 0 640 640" width="100" height="100"><defs><path d="M570 334.69C570 472.67 457.98 584.69 320 584.69C182.02 584.69 70 472.67 70 334.69C70 196.72 182.02 84.69 320 84.69C457.98 84.69 570 196.72 570 334.69Z" id="atllvs7g"></path><path d="M357.69 333.16C357.69 354.71 339.54 372.2 317.18 372.2C294.83 372.2 276.68 354.71 276.68 333.16C276.68 311.62 294.83 294.13 317.18 294.13C339.54 294.13 357.69 311.62 357.69 333.16Z" id="b1ao0HkkYa"></path><path d="M263.6 239.26C263.6 260.81 245.45 278.3 223.1 278.3C200.74 278.3 182.59 260.81 182.59 239.26C182.59 217.72 200.74 200.23 223.1 200.23C245.45 200.23 263.6 217.72 263.6 239.26Z" id="d71RXGkYME"></path><path d="M452.99 431.6C452.99 453.14 434.84 470.63 412.48 470.63C390.13 470.63 371.98 453.14 371.98 431.6C371.98 410.05 390.13 392.56 412.48 392.56C434.84 392.56 452.99 410.05 452.99 431.6Z" id="a2e3yNm9oL"></path><path d="M457.41 237.79C457.41 259.33 439.26 276.82 416.9 276.82C394.55 276.82 376.4 259.33 376.4 237.79C376.4 216.25 394.55 198.76 416.9 198.76C439.26 198.76 457.41 216.25 457.41 237.79Z" id="d1TfwVXqD0"></path><path d="M263.6 430.12C263.6 451.67 245.45 469.16 223.1 469.16C200.74 469.16 182.59 451.67 182.59 430.12C182.59 408.58 200.74 391.09 223.1 391.09C245.45 391.09 263.6 408.58 263.6 430.12Z" id="d8acnzOTKO"></path></defs><g><g><g><g><use xlink:href="#atllvs7g" opacity="1" fill="#202020" fill-opacity="1"></use><g><use xlink:href="#atllvs7g" opacity="1" fill-opacity="0" stroke="#000000" stroke-width="0" stroke-opacity="1"></use></g></g><g><use xlink:href="#b1ao0HkkYa" opacity="1" fill="#ffffff" fill-opacity="1"></use><g><use xlink:href="#b1ao0HkkYa" opacity="1" fill-opacity="0" stroke="#ffffff" stroke-width="0" stroke-opacity="1"></use></g></g><g><use xlink:href="#d71RXGkYME" opacity="1" fill="#ffffff" fill-opacity="1"></use><g><use xlink:href="#d71RXGkYME" opacity="1" fill-opacity="0" stroke="#ffffff" stroke-width="0" stroke-opacity="1"></use></g></g><g><use xlink:href="#a2e3yNm9oL" opacity="1" fill="#ffffff" fill-opacity="1"></use><g><use xlink:href="#a2e3yNm9oL" opacity="1" fill-opacity="0" stroke="#ffffff" stroke-width="0" stroke-opacity="1"></use></g></g><g><use xlink:href="#d1TfwVXqD0" opacity="1" fill="#ffffff" fill-opacity="1"></use><g><use xlink:href="#d1TfwVXqD0" opacity="1" fill-opacity="0" stroke="#ffffff" stroke-width="0" stroke-opacity="1"></use></g></g><g><use xlink:href="#d8acnzOTKO" opacity="1" fill="#ffffff" fill-opacity="1"></use><g><use xlink:href="#d8acnzOTKO" opacity="1" fill-opacity="0" stroke="#ffffff" stroke-width="0" stroke-opacity="1"></use></g></g></g></g></g></svg>