<?xml version="1.0" encoding="UTF-8" standalone="no"?>
<!DOCTYPE svg PUBLIC "-//W3C//DTD SVG 1.1//EN" "http://www.w3.org/Graphics/SVG/1.1/DTD/svg11.dtd">
<svg version="1.1" xmlns="http://www.w3.org/2000/svg" xmlns:xlink="http://www.w3.org/1999/xlink" preserveAspectRatio="xMidYMid meet" viewBox="0 0 640 640" width="150" height="150"><defs><path d="M82.6 82.83L581.12 82.83L581.12 582.83L82.6 582.83L82.6 82.83Z" id="fbMMYFsf3"></path><path d="M81.47 102.47L579.99 102.47L579.99 330.22L81.47 330.22L81.47 102.47Z" id="b1mtMNsZZC"></path><path d="M238 330.22L238 103.78" id="aWgq4y8GE"></path><path d="M312.93 334.29L312.93 382.54L237.39 383.66" id="a2OJnTliSh"></path><path d="M475.28 151.42L337.73 151.42L337.73 105.42" id="ckQPv6CAk"></path><path d="M238.51 260.25L311.8 260.25L311.8 169.37L241.9 169.37" id="b5q3IkDmn"></path><path d="M471.63 170.48L337.73 169.37L337.73 259.14L475.28 260.25" id="b3QscGJk7n"></path><path d="M311.23 330.37L311.23 282.12L235.69 281" id="b1J6c9pPke"></path><path d="M478.1 282.12L340.55 282.12L340.55 328.12" id="c8DEG36hB"></path><path d="M468.96 215.93L240.09 214.81" id="cbqUITwlB"></path><path d="M182.75 329.25C202.88 300.82 213.35 264.17 214.16 219.3C214.96 174.42 203.69 135.53 180.34 102.62" id="a8GYwuoEU8"></path><path d="M131.17 327.56C111.04 299.14 100.57 262.49 99.77 217.61C98.96 172.74 110.23 133.85 133.59 100.94" id="b5os3etoW5"></path><path d="M195.54 220.64C195.54 262.53 183.26 298.3 158.71 327.97C134.15 298.3 121.88 262.09 121.88 219.33C121.88 176.58 132.84 138.62 154.76 105.46C181.94 140.36 195.54 178.76 195.54 220.64Z" id="a1HCqC0BOQ"></path><path d="M183.7 221.95C183.7 236.4 171.91 248.13 157.39 248.13C142.87 248.13 131.08 236.4 131.08 221.95C131.08 207.5 142.87 195.77 157.39 195.77C171.91 195.77 183.7 207.5 183.7 221.95Z" id="d1x4CWj7gl"></path><path d="M186.7 330.37C206.83 358.79 217.3 395.44 218.1 440.31C218.91 485.19 207.64 524.08 184.28 556.99" id="c2KRAz57W"></path><path d="M135.12 332.05C114.98 360.47 104.52 397.12 103.71 442C102.91 486.87 114.18 525.77 137.53 558.68" id="b19Sg6FPdR"></path><path d="M199.48 438.97C199.48 397.09 187.2 361.31 162.65 331.64C138.1 361.31 125.82 397.52 125.82 440.28C125.82 483.04 136.78 521 158.71 554.15C185.89 519.25 199.48 480.86 199.48 438.97Z" id="a1s6PYlivp"></path><path d="M187.64 437.66C187.64 423.21 175.86 411.48 161.34 411.48C146.82 411.48 135.03 423.21 135.03 437.66C135.03 452.11 146.82 463.84 161.34 463.84C175.86 463.84 187.64 452.11 187.64 437.66Z" id="a2Qk8ZkCBo"></path><path d="M533.39 560.36C553.52 531.94 563.99 495.29 564.79 450.41C565.6 405.54 554.33 366.64 530.97 333.73" id="aaXV3TQdD"></path><path d="M481.81 558.68C461.67 530.26 451.21 493.61 450.4 448.73C449.6 403.85 460.87 364.96 484.22 332.05" id="cQr36p0OF"></path><path d="M546.17 451.76C546.17 493.64 533.89 529.42 509.34 559.09C484.79 529.42 472.51 493.2 472.51 450.45C472.51 407.69 483.47 369.73 505.4 336.57C532.58 371.48 546.17 409.87 546.17 451.76Z" id="bO9jR912c"></path><path d="M534.33 453.07C534.33 467.51 522.55 479.24 508.03 479.24C493.51 479.24 481.72 467.51 481.72 453.07C481.72 438.62 493.51 426.89 508.03 426.89C522.55 426.89 534.33 438.62 534.33 453.07Z" id="e2CjgB1Nod"></path><path d="M529.44 328.68C549.57 300.26 560.04 263.61 560.85 218.74C561.65 173.86 550.38 134.97 527.03 102.06" id="di1gkP8OV"></path><path d="M477.86 327C457.73 298.58 447.26 261.93 446.46 217.05C445.65 172.18 456.92 133.28 480.28 100.37" id="b1xNfATsL8"></path><path d="M542.23 220.08C542.23 261.97 529.95 297.74 505.4 327.41C480.84 297.74 468.57 261.53 468.57 218.77C468.57 176.01 479.53 138.06 501.45 104.9C528.63 139.8 542.23 178.2 542.23 220.08Z" id="asT9LfZkC"></path><path d="M530.39 221.39C530.39 235.84 518.6 247.57 504.08 247.57C489.56 247.57 477.77 235.84 477.77 221.39C477.77 206.94 489.56 195.21 504.08 195.21C518.6 195.21 530.39 206.94 530.39 221.39Z" id="c1RyDmaVaV"></path><path d="M579.45 558.12L81.12 559.24" id="fkeAIh77"></path><path d="M237.44 556.28L237.44 329.84" id="b2NDrUF37J"></path><path d="M236.82 498.65L310.11 498.65L310.11 407.78L240.2 407.78" id="a9Oi9L2tl"></path><path d="M468.4 449.85L239.53 448.73" id="eM7AcTIUB"></path><path d="M476.7 495.3L342.8 496.41L342.8 406.64L480.35 405.54" id="ekxIq73vH"></path><path d="M482.04 514.92L344.49 514.92L344.49 560.92" id="f3rGT39fLT"></path><path d="M310.67 562.04L310.67 513.8L235.13 512.68" id="b1rdJ8Ac9m"></path><path d="M315.74 101.5L315.74 149.74L240.2 150.86" id="c6CVnMs1l"></path><path d="M481.48 378.61L343.93 378.61L343.93 332.61" id="c69UgruWnd"></path></defs><g><g><g><use xlink:href="#fbMMYFsf3" opacity="1" fill="#100f50" fill-opacity="0"></use><g><use xlink:href="#fbMMYFsf3" opacity="1" fill-opacity="0" stroke="#000000" stroke-width="6" stroke-opacity="1"></use></g></g><g><use xlink:href="#b1mtMNsZZC" opacity="1" fill="#0f0f50" fill-opacity="0"></use><g><use xlink:href="#b1mtMNsZZC" opacity="1" fill-opacity="0" stroke="#000000" stroke-width="6" stroke-opacity="1"></use></g></g><g><g><use xlink:href="#aWgq4y8GE" opacity="1" fill-opacity="0" stroke="#000000" stroke-width="6" stroke-opacity="1"></use></g></g><g><g><use xlink:href="#a2OJnTliSh" opacity="1" fill-opacity="0" stroke="#000000" stroke-width="6" stroke-opacity="1"></use></g></g><g><g><use xlink:href="#ckQPv6CAk" opacity="1" fill-opacity="0" stroke="#000000" stroke-width="6" stroke-opacity="1"></use></g></g><g><g><use xlink:href="#b5q3IkDmn" opacity="1" fill-opacity="0" stroke="#180618" stroke-width="6" stroke-opacity="1"></use></g></g><g><g><use xlink:href="#b3QscGJk7n" opacity="1" fill-opacity="0" stroke="#180618" stroke-width="6" stroke-opacity="1"></use></g></g><g><g><use xlink:href="#b1J6c9pPke" opacity="1" fill-opacity="0" stroke="#000000" stroke-width="6" stroke-opacity="1"></use></g></g><g><g><use xlink:href="#c8DEG36hB" opacity="1" fill-opacity="0" stroke="#000000" stroke-width="6" stroke-opacity="1"></use></g></g><g><g><use xlink:href="#cbqUITwlB" opacity="1" fill-opacity="0" stroke="#180618" stroke-width="6" stroke-opacity="1"></use></g></g><g><g><g><g><use xlink:href="#a8GYwuoEU8" opacity="1" fill-opacity="0" stroke="#180618" stroke-width="6" stroke-opacity="1"></use></g></g><g><g><use xlink:href="#b5os3etoW5" opacity="1" fill-opacity="0" stroke="#180618" stroke-width="6" stroke-opacity="1"></use></g></g></g><g><g><use xlink:href="#a1HCqC0BOQ" opacity="1" fill-opacity="0" stroke="#000000" stroke-width="6" stroke-opacity="1"></use></g></g><g><use xlink:href="#d1x4CWj7gl" opacity="1" fill="#0f0f50" fill-opacity="0.92"></use><g><use xlink:href="#d1x4CWj7gl" opacity="1" fill-opacity="0" stroke="#291729" stroke-width="6" stroke-opacity="1"></use></g></g></g><g><g><g><g><use xlink:href="#c2KRAz57W" opacity="1" fill-opacity="0" stroke="#180618" stroke-width="6" stroke-opacity="1"></use></g></g><g><g><use xlink:href="#b19Sg6FPdR" opacity="1" fill-opacity="0" stroke="#180618" stroke-width="6" stroke-opacity="1"></use></g></g></g><g><g><use xlink:href="#a1s6PYlivp" opacity="1" fill-opacity="0" stroke="#000000" stroke-width="6" stroke-opacity="1"></use></g></g><g><use xlink:href="#a2Qk8ZkCBo" opacity="1" fill="#0f0f50" fill-opacity="0.92"></use><g><use xlink:href="#a2Qk8ZkCBo" opacity="1" fill-opacity="0" stroke="#291729" stroke-width="6" stroke-opacity="1"></use></g></g></g><g><g><g><g><use xlink:href="#aaXV3TQdD" opacity="1" fill-opacity="0" stroke="#180618" stroke-width="6" stroke-opacity="1"></use></g></g><g><g><use xlink:href="#cQr36p0OF" opacity="1" fill-opacity="0" stroke="#180618" stroke-width="6" stroke-opacity="1"></use></g></g></g><g><g><use xlink:href="#bO9jR912c" opacity="1" fill-opacity="0" stroke="#000000" stroke-width="6" stroke-opacity="1"></use></g></g><g><use xlink:href="#e2CjgB1Nod" opacity="1" fill="#0f0f50" fill-opacity="0.92"></use><g><use xlink:href="#e2CjgB1Nod" opacity="1" fill-opacity="0" stroke="#291729" stroke-width="6" stroke-opacity="1"></use></g></g></g><g><g><g><g><use xlink:href="#di1gkP8OV" opacity="1" fill-opacity="0" stroke="#180618" stroke-width="6" stroke-opacity="1"></use></g></g><g><g><use xlink:href="#b1xNfATsL8" opacity="1" fill-opacity="0" stroke="#180618" stroke-width="6" stroke-opacity="1"></use></g></g></g><g><g><use xlink:href="#asT9LfZkC" opacity="1" fill-opacity="0" stroke="#000000" stroke-width="6" stroke-opacity="1"></use></g></g><g><use xlink:href="#c1RyDmaVaV" opacity="1" fill="#0f0f50" fill-opacity="0.92"></use><g><use xlink:href="#c1RyDmaVaV" opacity="1" fill-opacity="0" stroke="#291729" stroke-width="6" stroke-opacity="1"></use></g></g></g><g><g><use xlink:href="#fkeAIh77" opacity="1" fill-opacity="0" stroke="#180618" stroke-width="6" stroke-opacity="1"></use></g></g><g><g><use xlink:href="#b2NDrUF37J" opacity="1" fill-opacity="0" stroke="#000000" stroke-width="6" stroke-opacity="1"></use></g></g><g><g><use xlink:href="#a9Oi9L2tl" opacity="1" fill-opacity="0" stroke="#180618" stroke-width="6" stroke-opacity="1"></use></g></g><g><g><use xlink:href="#eM7AcTIUB" opacity="1" fill-opacity="0" stroke="#180618" stroke-width="6" stroke-opacity="1"></use></g></g><g><g><use xlink:href="#ekxIq73vH" opacity="1" fill-opacity="0" stroke="#180618" stroke-width="6" stroke-opacity="1"></use></g></g><g><g><use xlink:href="#f3rGT39fLT" opacity="1" fill-opacity="0" stroke="#000000" stroke-width="6" stroke-opacity="1"></use></g></g><g><g><use xlink:href="#b1rdJ8Ac9m" opacity="1" fill-opacity="0" stroke="#000000" stroke-width="6" stroke-opacity="1"></use></g></g><g><g><use xlink:href="#c6CVnMs1l" opacity="1" fill-opacity="0" stroke="#000000" stroke-width="6" stroke-opacity="1"></use></g></g><g><g><use xlink:href="#c69UgruWnd" opacity="1" fill-opacity="0" stroke="#000000" stroke-width="6" stroke-opacity="1"></use></g></g></g></g></svg>