<?xml version="1.0" encoding="UTF-8" standalone="no"?>
<!DOCTYPE svg PUBLIC "-//W3C//DTD SVG 1.1//EN" "http://www.w3.org/Graphics/SVG/1.1/DTD/svg11.dtd">
<svg version="1.1" xmlns="http://www.w3.org/2000/svg" xmlns:xlink="http://www.w3.org/1999/xlink" preserveAspectRatio="xMidYMid meet" viewBox="0 0 640 640" width="150" height="150"><defs><path d="M359.88 338.33C359.88 354.11 347.73 366.92 332.77 366.92C317.81 366.92 305.66 354.11 305.66 338.33C305.66 322.56 317.81 309.75 332.77 309.75C347.73 309.75 359.88 322.56 359.88 338.33Z" id="a1otcjRgqa"></path><path d="M417.61 275.44C417.61 291.22 405.47 304.03 390.5 304.03C375.54 304.03 363.4 291.22 363.4 275.44C363.4 259.67 375.54 246.86 390.5 246.86C405.47 246.86 417.61 259.67 417.61 275.44Z" id="d5t2fzyfNN"></path><path d="M295.28 399.66C295.28 415.44 283.14 428.25 268.17 428.25C253.21 428.25 241.07 415.44 241.07 399.66C241.07 383.89 253.21 371.08 268.17 371.08C283.14 371.08 295.28 383.89 295.28 399.66Z" id="cgCFcroJA"></path><path d="M295.28 278.56C295.28 294.34 283.14 307.15 268.17 307.15C253.21 307.15 241.07 294.34 241.07 278.56C241.07 262.78 253.21 249.97 268.17 249.97C283.14 249.97 295.28 262.78 295.28 278.56Z" id="cXZnEXjKu"></path><path d="M417.61 399.66C417.61 415.44 405.47 428.25 390.5 428.25C375.54 428.25 363.4 415.44 363.4 399.66C363.4 383.89 375.54 371.08 390.5 371.08C405.47 371.08 417.61 383.89 417.61 399.66Z" id="b151598BJ"></path><path d="M238.4 195.4L287.59 235.94L329.76 190.2L378.96 235.94L421.13 195.4L472.33 243.22L427.15 287.92L467.31 331.58L424.14 371.08L472.33 428.25L424.14 479.18L370.93 436.57L323.74 479.18L283.58 436.57L231.37 476.07L187.19 425.13L229.36 385.63L190.2 333.65L234.38 296.23L190.2 243.22L238.4 195.4Z" id="b3ATxE95Ne"></path><path d="M78.76 145.5L125.6 202.68L82.66 257.77L142.18 338.33L78.76 410.58L125.6 471.91L82.66 520.76L142.18 576.9L190.97 520.76L254.4 576.9L322.7 520.76L381.74 580.02L450.53 520.76L503.23 576.9L558.85 515.57L506.15 459.43L564.7 396.02L506.15 326.38L564.7 267.13L506.15 202.68L564.7 150.7L506.15 89.37L450.53 145.5L394.91 89.37L319.78 150.7L236.5 89.37L184.14 150.7L115.84 89.37L78.76 145.5Z" id="adZBqctv"></path><path d="M75.75 84.69L575.75 84.69L575.75 584.69L75.75 584.69L75.75 84.69Z" id="alvhxSwyC"></path></defs><g><g><g><g><use xlink:href="#a1otcjRgqa" opacity="1" fill="#0f0f50" fill-opacity="1"></use><g><use xlink:href="#a1otcjRgqa" opacity="1" fill-opacity="0" stroke="#000000" stroke-width="7" stroke-opacity="1"></use></g></g><g><use xlink:href="#d5t2fzyfNN" opacity="1" fill="#0f0f50" fill-opacity="1"></use><g><use xlink:href="#d5t2fzyfNN" opacity="1" fill-opacity="0" stroke="#000000" stroke-width="7" stroke-opacity="1"></use></g></g><g><use xlink:href="#cgCFcroJA" opacity="1" fill="#0f0f50" fill-opacity="1"></use><g><use xlink:href="#cgCFcroJA" opacity="1" fill-opacity="0" stroke="#000000" stroke-width="7" stroke-opacity="1"></use></g></g><g><use xlink:href="#cXZnEXjKu" opacity="1" fill="#0f0f50" fill-opacity="1"></use><g><use xlink:href="#cXZnEXjKu" opacity="1" fill-opacity="0" stroke="#000000" stroke-width="7" stroke-opacity="1"></use></g></g><g><use xlink:href="#b151598BJ" opacity="1" fill="#0f0f50" fill-opacity="1"></use><g><use xlink:href="#b151598BJ" opacity="1" fill-opacity="0" stroke="#000000" stroke-width="7" stroke-opacity="1"></use></g></g><g><g><use xlink:href="#b3ATxE95Ne" opacity="1" fill-opacity="0" stroke="#000000" stroke-width="7" stroke-opacity="1"></use></g></g><g><g><use xlink:href="#adZBqctv" opacity="1" fill-opacity="0" stroke="#000000" stroke-width="7" stroke-opacity="1"></use></g></g><g><use xlink:href="#alvhxSwyC" opacity="1" fill="#0f0f50" fill-opacity="0"></use><g><use xlink:href="#alvhxSwyC" opacity="1" fill-opacity="0" stroke="#000000" stroke-width="7" stroke-opacity="1"></use></g></g></g></g></g></svg>