<?xml version="1.0" encoding="UTF-8" standalone="no"?>
<!DOCTYPE svg PUBLIC "-//W3C//DTD SVG 1.1//EN" "http://www.w3.org/Graphics/SVG/1.1/DTD/svg11.dtd">
<svg version="1.1" xmlns="http://www.w3.org/2000/svg" xmlns:xlink="http://www.w3.org/1999/xlink" preserveAspectRatio="xMidYMid meet" viewBox="0 0 640 640" width="150" height="150"><defs><path d="M297.14 335.94C297.14 323.09 307.38 312.67 320 312.67C332.62 312.67 342.86 323.09 342.86 335.94C342.86 348.78 332.62 359.21 320 359.21C307.38 359.21 297.14 348.78 297.14 335.94Z" id="bF4Q5cFFF"></path><path d="M325.92 115.91L328.27 117.44L330.59 118.96L332.87 120.47L335.12 121.97L337.33 123.46L339.51 124.94L341.66 126.41L343.77 127.87L345.85 129.32L347.89 130.76L349.9 132.18L351.88 133.6L353.82 135.01L355.72 136.4L357.6 137.79L359.44 139.16L361.24 140.53L363.01 141.88L364.75 143.22L366.45 144.56L368.12 145.88L369.76 147.19L371.36 148.49L372.92 149.78L374.46 151.06L375.96 152.33L377.42 153.59L378.85 154.84L380.25 156.08L381.61 157.31L382.94 158.52L384.23 159.73L385.49 160.93L386.72 162.11L387.91 163.29L389.07 164.46L390.19 165.61L391.28 166.75L392.39 167.96L393.44 169.15L394.43 170.33L395.37 171.5L396.25 172.66L397.08 173.8L397.85 174.94L398.58 176.05L399.26 177.16L399.89 178.24L400.47 179.32L401.01 180.38L401.5 181.42L401.96 182.44L402.37 183.45L402.75 184.44L403.09 185.42L403.39 186.37L403.65 187.31L403.89 188.23L404.09 189.13L404.26 190.01L404.41 190.86L404.53 191.7L404.62 192.52L404.68 193.31L404.73 194.08L404.75 194.83L404.75 195.56L404.74 196.26L404.71 196.94L404.66 197.6L404.59 198.22L404.52 198.83L404.43 199.41L404.34 199.96L404.23 200.49L404.12 200.98L404 201.46L403.88 201.9L403.76 202.24L403.56 202.69L403.28 203.26L402.92 203.93L402.47 204.72L401.95 205.62L401.35 206.63L400.67 207.75L399.91 208.98L399.07 210.33L398.15 211.78L397.14 213.35L396.06 215.03L394.9 216.82L393.66 218.72L392.34 220.73L390.94 222.85L389.46 225.09L387.9 227.43L386.26 229.89L384.53 232.46L382.73 235.14L380.85 237.93L378.89 240.84L376.85 243.85L374.73 246.98L372.53 250.21L370.25 253.56L367.89 257.02L365.45 260.59L362.93 264.27L360.33 268.07L357.65 271.97L354.89 275.99L352.05 280.12L349.13 284.36L346.13 288.71L343.05 293.17L339.89 297.74L336.65 302.43L321.12 257.48L306.41 302.43L235.3 204.35L235.27 202.97L235.25 201.62L235.25 200.28L235.26 198.97L235.29 197.68L235.33 196.42L235.39 195.18L235.46 193.95L235.55 192.76L235.66 191.58L235.78 190.43L235.91 189.3L236.06 188.19L236.23 187.1L236.41 186.04L236.61 185L236.82 183.98L237.05 182.98L237.29 182.01L237.55 181.06L237.82 180.13L238.11 179.22L238.41 178.34L238.73 177.48L239.07 176.64L239.42 175.82L239.78 175.03L240.16 174.26L240.56 173.51L240.97 172.78L241.4 172.08L241.84 171.4L242.3 170.74L242.77 170.1L243.26 169.49L243.76 168.9L244.28 168.33L244.81 167.78L245.36 167.26L245.92 166.75L246.53 166.24L247.2 165.69L247.94 165.09L248.74 164.45L249.6 163.77L250.53 163.04L251.53 162.27L252.59 161.46L253.72 160.6L254.92 159.71L256.17 158.76L257.5 157.78L258.89 156.75L260.34 155.68L261.86 154.57L263.45 153.42L265.1 152.22L266.82 150.98L268.6 149.69L270.44 148.37L272.36 147L274.33 145.58L276.38 144.13L278.49 142.63L280.66 141.09L282.9 139.5L285.2 137.87L287.57 136.2L290.01 134.49L292.51 132.73L295.08 130.94L297.71 129.09L300.41 127.21L303.17 125.28L306 123.31L308.89 121.3L311.85 119.24L314.87 117.14L317.96 115L321.12 112.81L323.54 114.37L325.92 115.91ZM318.53 180.61L317.23 180.81L315.96 181.07L314.71 181.41L313.49 181.81L312.3 182.29L311.15 182.82L310.03 183.42L308.95 184.08L307.9 184.8L306.9 185.57L305.95 186.4L305.04 187.28L304.17 188.2L303.36 189.18L302.6 190.19L301.9 191.26L301.25 192.36L300.66 193.5L300.13 194.67L299.67 195.88L299.27 197.12L298.94 198.39L298.68 199.69L298.49 201.01L298.38 202.36L298.34 203.73L298.38 205.09L298.49 206.44L298.68 207.76L298.94 209.06L299.27 210.33L299.67 211.57L300.13 212.78L300.66 213.96L301.25 215.1L301.9 216.2L302.6 217.26L303.36 218.28L304.17 219.25L305.04 220.18L305.95 221.05L306.9 221.88L307.9 222.65L308.95 223.37L310.03 224.03L311.15 224.63L312.3 225.17L313.49 225.64L314.71 226.04L315.96 226.38L317.23 226.65L318.53 226.84L319.85 226.96L321.2 227L322.54 226.96L323.86 226.84L325.16 226.65L326.44 226.38L327.68 226.04L328.9 225.64L330.09 225.17L331.25 224.63L332.37 224.03L333.45 223.37L334.49 222.65L335.49 221.88L336.45 221.05L337.36 220.18L338.22 219.25L339.03 218.28L339.79 217.26L340.5 216.2L341.14 215.1L341.73 213.96L342.26 212.78L342.72 211.57L343.12 210.33L343.45 209.06L343.71 207.76L343.9 206.44L344.02 205.09L344.06 203.73L344.02 202.36L343.9 201.01L343.71 199.69L343.45 198.39L343.12 197.12L342.72 195.88L342.26 194.67L341.73 193.5L341.14 192.36L340.5 191.26L339.79 190.19L339.03 189.18L338.22 188.2L337.36 187.28L336.45 186.4L335.49 185.57L334.49 184.8L333.45 184.08L332.37 183.42L331.25 182.82L330.09 182.29L328.9 181.81L327.68 181.41L326.44 181.07L325.16 180.81L323.86 180.61L322.54 180.5L321.2 180.46L319.85 180.5L318.53 180.61Z" id="b4TPlrG9y"></path><path d="M310.61 377.83L306.22 498.89L305.4 500L304.58 501.08L303.76 502.13L302.94 503.16L302.12 504.15L301.31 505.12L300.5 506.07L299.69 506.98L298.88 507.87L298.07 508.73L297.27 509.57L296.46 510.38L295.66 511.16L294.86 511.91L294.07 512.64L293.27 513.34L292.47 514.01L291.68 514.65L290.89 515.27L290.1 515.86L289.31 516.42L288.53 516.96L287.75 517.47L286.96 517.95L286.18 518.4L285.41 518.83L284.63 519.23L283.85 519.61L283.08 519.95L282.31 520.27L281.54 520.56L280.77 520.83L280.01 521.07L279.24 521.28L278.48 521.46L277.72 521.62L276.96 521.74L276.2 521.85L275.45 521.92L274.69 521.97L273.9 522L273.03 522.02L272.08 522.04L271.06 522.05L269.96 522.06L268.77 522.06L267.51 522.05L266.18 522.03L264.76 522.01L263.27 521.98L261.7 521.95L260.05 521.91L258.32 521.86L256.52 521.81L254.63 521.75L252.67 521.68L250.63 521.61L248.52 521.53L246.32 521.45L244.05 521.35L241.7 521.26L239.27 521.15L236.76 521.04L234.18 520.92L231.52 520.8L228.78 520.67L225.96 520.53L223.06 520.38L220.09 520.23L217.04 520.08L213.91 519.91L210.7 519.74L207.41 519.57L204.05 519.38L200.61 519.2L197.09 519L193.49 518.8L189.82 518.59L186.06 518.37L182.23 518.15L181.28 515.44L180.35 512.76L179.45 510.1L178.56 507.48L177.69 504.88L176.84 502.31L176.02 499.78L175.21 497.27L174.43 494.79L173.66 492.34L172.92 489.92L172.19 487.53L171.49 485.17L170.8 482.83L170.14 480.53L169.5 478.25L168.87 476.01L168.27 473.79L167.69 471.61L167.13 469.45L166.59 467.32L166.07 465.22L165.57 463.15L165.09 461.11L164.63 459.1L164.19 457.12L163.77 455.17L163.37 453.24L162.99 451.35L162.63 449.48L162.3 447.65L161.98 445.84L161.68 444.06L161.41 442.32L161.15 440.6L160.92 438.91L160.7 437.25L160.51 435.62L160.33 434.01L160.18 432.44L160.05 430.81L159.96 429.22L159.9 427.68L159.88 426.18L159.9 424.73L159.95 423.32L160.04 421.95L160.16 420.62L160.3 419.33L160.48 418.09L160.68 416.88L160.91 415.72L161.16 414.59L161.43 413.5L161.73 412.45L162.04 411.44L162.37 410.47L162.73 409.53L163.09 408.63L163.47 407.76L163.87 406.93L164.27 406.13L164.69 405.36L165.11 404.63L165.54 403.93L165.98 403.26L166.42 402.63L166.86 402.02L167.31 401.45L167.75 400.91L168.2 400.39L168.64 399.91L169.07 399.45L169.51 399.02L169.93 398.62L170.35 398.24L170.75 397.89L171.15 397.57L171.53 397.27L171.9 396.99L172.2 396.8L172.64 396.57L173.21 396.3L173.91 395.99L174.75 395.64L175.71 395.25L176.81 394.83L178.03 394.36L179.39 393.86L180.88 393.32L182.51 392.74L184.26 392.12L186.14 391.47L188.16 390.77L190.31 390.04L192.59 389.27L195 388.46L197.54 387.61L200.22 386.72L203.03 385.8L205.96 384.83L209.03 383.83L212.23 382.79L215.57 381.71L219.03 380.59L222.63 379.44L226.35 378.24L230.21 377.01L234.2 375.74L238.33 374.43L242.58 373.08L246.97 371.69L251.48 370.26L256.13 368.8L260.91 367.3L265.82 365.76L270.87 364.18L276.04 362.56L281.35 360.9L286.78 359.21L271.33 404.18L310.61 377.83ZM235.56 423.57L234.31 423.77L233.07 424.03L231.85 424.37L230.64 424.77L229.45 425.24L228.29 425.77L227.15 426.38L226.04 427.04L224.96 427.77L223.91 428.57L222.91 429.43L221.95 430.36L221.03 431.35L220.15 432.4L219.34 433.5L218.6 434.63L217.94 435.79L217.35 436.97L216.82 438.18L216.37 439.4L215.99 440.64L215.69 441.89L215.45 443.15L215.28 444.42L215.18 445.69L215.15 446.96L215.19 448.23L215.3 449.49L215.48 450.74L215.72 451.98L216.03 453.2L216.41 454.41L216.86 455.6L217.37 456.76L217.95 457.89L218.6 459L219.31 460.07L220.08 461.1L220.92 462.1L221.83 463.05L222.8 463.95L223.83 464.81L224.91 465.61L226.03 466.33L227.17 466.98L228.34 467.55L229.53 468.06L230.74 468.49L231.97 468.85L233.21 469.14L234.46 469.36L235.72 469.5L236.98 469.58L238.24 469.59L239.51 469.53L240.76 469.4L242.01 469.2L243.25 468.93L244.48 468.59L245.69 468.19L246.88 467.72L248.04 467.19L249.18 466.59L250.29 465.92L251.37 465.19L252.41 464.39L253.42 463.53L254.38 462.6L255.3 461.61L256.17 460.56L256.98 459.46L257.72 458.33L258.39 457.17L258.98 455.99L259.5 454.78L259.95 453.56L260.33 452.32L260.64 451.07L260.88 449.81L261.05 448.54L261.15 447.27L261.18 446L261.14 444.74L261.03 443.47L260.85 442.22L260.61 440.98L260.29 439.76L259.91 438.55L259.47 437.36L258.96 436.2L258.38 435.07L257.73 433.97L257.02 432.89L256.24 431.86L255.4 430.87L254.5 429.91L253.53 429.01L252.5 428.15L251.41 427.35L250.3 426.63L249.16 425.98L247.99 425.41L246.8 424.9L245.59 424.47L244.36 424.11L243.12 423.82L241.87 423.61L240.61 423.46L239.35 423.38L238.08 423.37L236.82 423.44L235.56 423.57Z" id="c7hZ3ZF6q1"></path><path d="M468.29 396.57L469.11 397.65L469.92 398.71L470.69 399.77L471.44 400.82L472.16 401.86L472.86 402.89L473.53 403.91L474.18 404.93L474.8 405.93L475.4 406.93L475.96 407.91L476.51 408.89L477.03 409.86L477.52 410.82L477.98 411.77L478.42 412.71L478.84 413.65L479.23 414.57L479.59 415.49L479.93 416.39L480.24 417.29L480.53 418.18L480.79 419.06L481.02 419.94L481.23 420.8L481.41 421.65L481.57 422.5L481.7 423.34L481.81 424.16L481.89 424.98L481.94 425.79L481.97 426.59L481.97 427.39L481.95 428.17L481.9 428.95L481.83 429.71L481.73 430.47L481.6 431.22L481.45 431.96L481.27 432.73L481.07 433.58L480.84 434.5L480.58 435.49L480.3 436.55L479.99 437.69L479.65 438.91L479.29 440.19L478.89 441.55L478.48 442.99L478.03 444.5L477.56 446.08L477.07 447.73L476.54 449.46L475.99 451.26L475.41 453.14L474.81 455.08L474.18 457.11L473.52 459.2L472.84 461.37L472.13 463.61L471.39 465.93L470.63 468.32L469.84 470.78L469.02 473.32L468.17 475.93L467.3 478.61L466.41 481.37L465.48 484.2L464.53 487.11L463.56 490.09L462.55 493.14L461.52 496.26L460.47 499.46L459.38 502.73L458.27 506.08L457.14 509.5L455.97 512.99L454.78 516.56L453.56 520.2L450.7 520.4L447.87 520.6L445.07 520.78L442.3 520.95L439.57 521.1L436.87 521.25L434.2 521.38L431.57 521.5L428.97 521.61L426.41 521.71L423.88 521.8L421.38 521.87L418.91 521.93L416.48 521.98L414.09 522.02L411.72 522.04L409.39 522.06L407.1 522.06L404.84 522.05L402.61 522.02L400.41 521.99L398.25 521.94L396.12 521.88L394.03 521.81L391.96 521.73L389.94 521.63L387.94 521.53L385.98 521.41L384.05 521.28L382.16 521.13L380.3 520.98L378.47 520.81L376.68 520.63L374.92 520.44L373.2 520.24L371.5 520.02L369.84 519.8L368.22 519.56L366.63 519.3L365.07 519.04L363.46 518.74L361.91 518.42L360.4 518.06L358.95 517.69L357.55 517.29L356.2 516.87L354.91 516.43L353.65 515.97L352.45 515.49L351.3 515L350.19 514.49L349.12 513.96L348.1 513.43L347.12 512.88L346.18 512.32L345.29 511.75L344.44 511.17L343.62 510.59L342.85 510L342.11 509.4L341.41 508.8L340.74 508.2L340.11 507.6L339.52 507L338.96 506.4L338.43 505.81L337.93 505.22L337.46 504.63L337.03 504.05L336.62 503.48L336.24 502.91L335.88 502.36L335.56 501.82L335.25 501.29L334.98 500.78L334.72 500.28L334.49 499.79L334.28 499.33L334.09 498.88L333.93 498.45L333.82 498.1L333.71 497.62L333.6 497L333.48 496.24L333.36 495.35L333.24 494.32L333.12 493.15L332.99 491.84L332.86 490.4L332.73 488.82L332.6 487.1L332.46 485.25L332.32 483.26L332.18 481.13L332.03 478.86L331.89 476.46L331.74 473.92L331.58 471.24L331.43 468.43L331.27 465.48L331.11 462.39L330.94 459.17L330.78 455.8L330.61 452.3L330.44 448.67L330.26 444.9L330.08 440.99L329.9 436.94L329.72 432.75L329.54 428.43L329.35 423.97L329.16 419.38L328.96 414.65L328.77 409.78L328.57 404.77L328.37 399.63L328.16 394.34L327.95 388.93L327.74 383.37L327.53 377.68L366.9 404.37L351.75 359.56L467.44 395.49L468.29 396.57ZM395.81 424.5L394.56 424.69L393.31 424.96L392.08 425.29L390.86 425.7L389.66 426.17L388.48 426.73L387.32 427.35L386.19 428.05L385.09 428.82L384.04 429.66L383.05 430.54L382.13 431.48L381.27 432.45L380.47 433.47L379.74 434.52L379.07 435.61L378.47 436.74L377.93 437.89L377.46 439.06L377.05 440.26L376.71 441.48L376.44 442.71L376.24 443.96L376.1 445.22L376.04 446.49L376.04 447.76L376.11 449.03L376.25 450.3L376.46 451.56L376.75 452.82L377.1 454.07L377.52 455.3L378.02 456.52L378.59 457.71L379.23 458.88L379.94 460.03L380.73 461.15L381.58 462.22L382.48 463.23L383.42 464.17L384.41 465.06L385.44 465.87L386.5 466.63L387.59 467.32L388.72 467.95L389.87 468.51L391.05 469L392.25 469.43L393.47 469.79L394.7 470.08L395.95 470.31L397.2 470.46L398.47 470.55L399.73 470.57L400.99 470.52L402.26 470.4L403.51 470.21L404.76 469.95L405.99 469.61L407.21 469.21L408.41 468.73L409.59 468.18L410.75 467.55L411.88 466.86L412.98 466.08L414.03 465.25L415.01 464.36L415.94 463.43L416.8 462.45L417.6 461.43L418.33 460.38L419 459.29L419.6 458.17L420.14 457.02L420.61 455.84L421.02 454.64L421.36 453.42L421.63 452.19L421.83 450.94L421.97 449.68L422.03 448.42L422.03 447.15L421.96 445.87L421.82 444.6L421.61 443.34L421.32 442.08L420.97 440.84L420.55 439.6L420.05 438.39L419.48 437.19L418.84 436.02L418.13 434.87L417.34 433.76L416.49 432.69L415.59 431.68L414.65 430.73L413.66 429.85L412.63 429.03L411.57 428.27L410.48 427.58L409.35 426.96L408.19 426.4L407.02 425.9L405.82 425.48L404.6 425.12L403.36 424.82L402.12 424.6L400.86 424.44L399.6 424.35L398.34 424.33L397.08 424.38L395.81 424.5Z" id="a1gCp7raHB"></path><path d="M447.68 211.01L448.59 211.07L449.49 211.15L450.38 211.25L451.24 211.38L452.09 211.52L452.92 211.69L453.73 211.88L454.53 212.09L455.31 212.32L456.07 212.57L456.81 212.84L457.54 213.13L458.25 213.45L458.94 213.78L459.62 214.14L460.28 214.52L460.92 214.92L461.58 215.35L462.3 215.84L463.09 216.37L463.93 216.96L464.83 217.59L465.79 218.28L466.81 219.02L467.89 219.81L469.03 220.64L470.23 221.53L471.49 222.47L472.81 223.46L474.19 224.5L475.63 225.59L477.13 226.74L478.69 227.93L480.3 229.17L481.98 230.46L483.72 231.81L485.52 233.2L487.37 234.65L489.29 236.14L491.27 237.69L493.3 239.28L495.4 240.93L497.55 242.63L499.77 244.37L502.04 246.17L504.38 248.02L506.77 249.92L509.23 251.87L511.74 253.87L514.31 255.92L516.95 258.02L519.64 260.17L522.39 262.37L525.2 264.63L528.08 266.93L531.01 269.28L534 271.69L533.2 274.45L532.4 277.17L531.6 279.86L530.8 282.51L529.99 285.13L529.19 287.71L528.4 290.26L527.6 292.77L526.8 295.24L526 297.68L525.2 300.09L524.4 302.45L523.61 304.79L522.81 307.08L522.01 309.34L521.22 311.57L520.42 313.76L519.62 315.91L518.83 318.03L518.03 320.11L517.24 322.16L516.45 324.17L515.65 326.15L514.86 328.09L514.07 329.99L513.27 331.86L512.48 333.69L511.69 335.49L510.9 337.25L510.11 338.98L509.31 340.67L508.52 342.33L507.73 343.95L506.94 345.53L506.15 347.08L505.37 348.59L504.58 350.07L503.79 351.51L503 352.91L502.21 354.28L501.37 355.69L500.53 357.03L499.68 358.32L498.82 359.55L497.96 360.73L497.1 361.84L496.24 362.91L495.37 363.92L494.51 364.89L493.64 365.8L492.78 366.66L491.92 367.48L491.06 368.25L490.2 368.98L489.35 369.66L488.51 370.3L487.67 370.9L486.84 371.46L486.02 371.99L485.21 372.47L484.4 372.92L483.61 373.34L482.83 373.72L482.06 374.07L481.3 374.39L480.56 374.68L479.83 374.94L479.12 375.18L478.42 375.38L477.75 375.57L477.09 375.73L476.44 375.87L475.82 375.99L475.22 376.09L474.64 376.17L474.09 376.23L473.55 376.28L473.04 376.32L472.56 376.34L472.1 376.35L471.73 376.33L471.24 376.26L470.62 376.16L469.87 376L468.99 375.8L467.98 375.56L466.84 375.27L465.57 374.93L464.18 374.55L462.65 374.13L460.99 373.66L459.2 373.14L457.29 372.58L455.24 371.98L453.07 371.33L450.76 370.63L448.33 369.89L445.77 369.11L443.07 368.28L440.25 367.4L437.3 366.48L434.22 365.52L431.01 364.51L427.67 363.45L424.2 362.35L420.6 361.21L416.87 360.02L413.01 358.78L409.02 357.5L404.9 356.17L400.66 354.8L396.28 353.39L391.78 351.93L387.14 350.42L382.38 348.87L377.48 347.28L372.46 345.64L367.3 343.95L362.02 342.22L356.61 340.44L395.3 312.78L348.02 311.45L421.85 215.41L423.16 214.99L424.46 214.58L425.74 214.2L427 213.84L428.24 213.5L429.47 213.19L430.68 212.89L431.87 212.61L433.04 212.36L434.2 212.13L435.34 211.91L436.46 211.72L437.57 211.55L438.66 211.4L439.73 211.27L440.78 211.17L441.82 211.08L442.84 211.01L443.84 210.97L444.83 210.95L445.79 210.95L446.74 210.97L447.68 211.01ZM444.33 274.85L443 275.05L441.68 275.32L440.36 275.67L439.06 276.1L437.8 276.59L436.59 277.15L435.42 277.77L434.3 278.44L433.22 279.18L432.19 279.97L431.21 280.81L430.29 281.7L429.42 282.63L428.6 283.61L427.84 284.62L427.13 285.68L426.49 286.77L425.91 287.89L425.39 289.04L424.93 290.22L424.54 291.42L424.22 292.65L423.96 293.89L423.77 295.15L423.66 296.43L423.61 297.71L423.65 299L423.75 300.3L423.94 301.6L424.2 302.9L424.54 304.2L424.96 305.48L425.45 306.71L426.01 307.9L426.62 309.05L427.3 310.15L428.04 311.2L428.83 312.21L429.67 313.16L430.56 314.07L431.5 314.92L432.48 315.71L433.51 316.45L434.57 317.14L435.67 317.76L436.81 318.32L437.97 318.82L439.16 319.26L440.38 319.64L441.62 319.95L442.88 320.19L444.16 320.36L445.45 320.46L446.75 320.49L448.07 320.44L449.38 320.33L450.71 320.13L452.03 319.86L453.35 319.51L454.65 319.08L455.91 318.59L457.12 318.03L458.29 317.41L459.42 316.74L460.49 316L461.52 315.21L462.5 314.37L463.42 313.49L464.29 312.55L465.11 311.57L465.87 310.56L466.58 309.5L467.22 308.41L467.8 307.29L468.32 306.14L468.78 304.96L469.17 303.76L469.5 302.53L469.75 301.29L469.94 300.03L470.05 298.75L470.1 297.47L470.06 296.18L469.96 294.88L469.77 293.58L469.51 292.28L469.17 290.98L468.75 289.7L468.26 288.47L467.7 287.28L467.09 286.13L466.41 285.03L465.67 283.98L464.88 282.97L464.04 282.02L463.15 281.11L462.21 280.26L461.23 279.47L460.2 278.73L459.14 278.04L458.04 277.42L456.9 276.86L455.74 276.36L454.55 275.92L453.33 275.54L452.09 275.24L450.83 274.99L449.55 274.82L448.26 274.72L446.96 274.69L445.65 274.74L444.33 274.85Z" id="d3ydzbC0K7"></path><path d="M202.76 211.23L203.7 211.3L204.62 211.39L205.51 211.51L206.37 211.64L207.2 211.79L208 211.97L208.78 212.15L209.52 212.36L210.24 212.57L210.93 212.8L211.59 213.03L212.23 213.28L212.83 213.53L213.41 213.79L213.96 214.05L214.48 214.32L214.98 214.58L215.44 214.85L215.88 215.11L216.29 215.37L216.67 215.63L216.96 215.85L217.32 216.19L217.77 216.63L218.3 217.19L218.91 217.86L219.59 218.63L220.36 219.52L221.21 220.52L222.14 221.64L223.15 222.86L224.24 224.19L225.41 225.64L226.66 227.19L227.99 228.86L229.4 230.64L230.89 232.53L232.46 234.53L234.12 236.64L235.85 238.86L237.66 241.2L239.56 243.64L241.53 246.2L243.58 248.86L245.72 251.64L247.93 254.53L250.23 257.53L252.61 260.64L255.06 263.86L257.6 267.19L260.22 270.64L262.91 274.19L265.69 277.86L268.55 281.63L271.49 285.52L274.51 289.52L277.61 293.63L280.79 297.85L284.05 302.18L287.39 306.63L290.81 311.18L243.25 311.71L281.25 339.87L165.74 376.35L164.42 375.95L163.13 375.53L161.86 375.12L160.62 374.69L159.41 374.26L158.22 373.81L157.06 373.37L155.92 372.91L154.82 372.45L153.73 371.98L152.68 371.5L151.65 371.01L150.64 370.52L149.66 370.02L148.71 369.51L147.79 368.99L146.89 368.47L146.01 367.94L145.17 367.4L144.35 366.86L143.55 366.3L142.78 365.74L142.04 365.18L141.32 364.6L140.63 364.02L139.97 363.43L139.33 362.83L138.72 362.23L138.14 361.62L137.58 361L137.04 360.37L136.54 359.73L136.06 359.09L135.6 358.44L135.17 357.79L134.77 357.12L134.39 356.45L134.04 355.77L133.72 355.08L133.42 354.39L133.13 353.65L132.81 352.84L132.48 351.96L132.12 350.99L131.75 349.96L131.35 348.84L130.94 347.65L130.5 346.39L130.05 345.05L129.57 343.63L129.08 342.14L128.56 340.57L128.03 338.93L127.47 337.21L126.9 335.42L126.3 333.55L125.69 331.61L125.05 329.58L124.4 327.49L123.72 325.32L123.03 323.07L122.31 320.75L121.57 318.35L120.82 315.87L120.04 313.32L119.25 310.7L118.43 308L117.6 305.22L116.74 302.37L115.86 299.44L114.97 296.44L114.05 293.36L113.12 290.2L112.16 286.97L111.18 283.67L110.19 280.29L109.17 276.83L108.13 273.3L107.08 269.69L106 266.01L108.24 264.2L110.45 262.43L112.65 260.68L114.83 258.96L116.98 257.28L119.11 255.62L121.23 253.99L123.32 252.39L125.39 250.82L127.44 249.27L129.47 247.76L131.48 246.27L133.47 244.82L135.44 243.39L137.39 241.99L139.31 240.62L141.22 239.29L143.11 237.97L144.97 236.69L146.81 235.44L148.64 234.22L150.44 233.02L152.22 231.86L153.98 230.72L155.72 229.61L157.44 228.53L159.14 227.48L160.82 226.46L162.48 225.47L164.12 224.51L165.73 223.58L167.33 222.67L168.9 221.8L170.46 220.95L171.99 220.13L173.5 219.34L175 218.58L176.47 217.85L177.92 217.15L179.35 216.48L180.84 215.81L182.3 215.19L183.74 214.62L185.14 214.1L186.52 213.63L187.87 213.21L189.19 212.83L190.48 212.49L191.74 212.2L192.97 211.95L194.17 211.73L195.34 211.55L196.49 211.41L197.61 211.31L198.69 211.23L199.75 211.19L200.78 211.18L201.79 211.19L202.76 211.23ZM189.06 271.94L187.8 272.14L186.55 272.4L185.32 272.74L184.11 273.14L182.93 273.6L181.78 274.12L180.66 274.71L179.57 275.36L178.52 276.06L177.51 276.82L176.55 277.64L175.63 278.52L174.75 279.44L173.93 280.42L173.16 281.45L172.44 282.53L171.79 283.65L171.19 284.82L170.67 286.04L170.2 287.3L169.82 288.59L169.51 289.88L169.28 291.17L169.13 292.47L169.06 293.76L169.06 295.04L169.13 296.32L169.27 297.59L169.49 298.84L169.77 300.07L170.12 301.29L170.54 302.48L171.02 303.65L171.57 304.79L172.17 305.9L172.84 306.98L173.57 308.02L174.35 309.03L175.19 309.99L176.09 310.91L177.04 311.78L178.04 312.6L179.09 313.37L180.19 314.09L181.34 314.74L182.53 315.34L183.78 315.88L185.06 316.34L186.37 316.74L187.68 317.05L189 317.29L190.31 317.46L191.62 317.54L192.92 317.56L194.22 317.5L195.5 317.37L196.77 317.17L198.02 316.91L199.25 316.57L200.45 316.17L201.63 315.71L202.78 315.19L203.9 314.6L204.99 313.95L206.04 313.25L207.05 312.49L208.02 311.67L208.94 310.79L209.81 309.87L210.64 308.89L211.41 307.86L212.12 306.78L212.78 305.66L213.37 304.48L213.9 303.27L214.36 302.01L214.75 300.72L215.05 299.43L215.28 298.13L215.43 296.84L215.51 295.55L215.51 294.27L215.43 292.99L215.29 291.72L215.07 290.47L214.79 289.24L214.44 288.02L214.02 286.83L213.54 285.66L213 284.52L212.39 283.41L211.72 282.33L211 281.29L210.21 280.28L209.37 279.32L208.48 278.4L207.53 277.53L206.53 276.71L205.47 275.94L204.37 275.22L203.22 274.57L202.03 273.97L200.79 273.43L199.5 272.96L198.2 272.57L196.88 272.25L195.57 272.02L194.25 271.85L192.94 271.77L191.64 271.75L190.35 271.81L189.06 271.94Z" id="a12Lx7gGyi"></path></defs><g><g><g><use xlink:href="#bF4Q5cFFF" opacity="1" fill="#b53137" fill-opacity="1"></use></g><g><use xlink:href="#b4TPlrG9y" opacity="1" fill="#4a454a" fill-opacity="1"></use><g><use xlink:href="#b4TPlrG9y" opacity="1" fill-opacity="0" stroke="#000000" stroke-width="1" stroke-opacity="1"></use></g></g><g><use xlink:href="#c7hZ3ZF6q1" opacity="1" fill="#4a454a" fill-opacity="1"></use><g><use xlink:href="#c7hZ3ZF6q1" opacity="1" fill-opacity="0" stroke="#000000" stroke-width="1" stroke-opacity="1"></use></g></g><g><use xlink:href="#a1gCp7raHB" opacity="1" fill="#4a454a" fill-opacity="1"></use><g><use xlink:href="#a1gCp7raHB" opacity="1" fill-opacity="0" stroke="#000000" stroke-width="1" stroke-opacity="1"></use></g></g><g><use xlink:href="#d3ydzbC0K7" opacity="1" fill="#4a454a" fill-opacity="1"></use><g><use xlink:href="#d3ydzbC0K7" opacity="1" fill-opacity="0" stroke="#000000" stroke-width="1" stroke-opacity="1"></use></g></g><g><use xlink:href="#a12Lx7gGyi" opacity="1" fill="#4a454a" fill-opacity="1"></use><g><use xlink:href="#a12Lx7gGyi" opacity="1" fill-opacity="0" stroke="#000000" stroke-width="1" stroke-opacity="1"></use></g></g></g></g></svg>