<?xml version="1.0" encoding="UTF-8" standalone="no"?>
<!DOCTYPE svg PUBLIC "-//W3C//DTD SVG 1.1//EN" "http://www.w3.org/Graphics/SVG/1.1/DTD/svg11.dtd">
<svg version="1.1" xmlns="http://www.w3.org/2000/svg" xmlns:xlink="http://www.w3.org/1999/xlink" preserveAspectRatio="xMidYMid meet" viewBox="0 0 640 640" width="150" height="150"><defs><path d="M319.29 338.79C329.5 346.58 344 344.76 351.66 334.73C359.31 324.69 357.23 310.23 347.02 302.44C336.81 294.65 322.31 296.47 314.65 306.5C307 316.53 309.08 331 319.29 338.79Z" id="e34uIjiyg9"></path><path d="M381.14 328.23L386.55 328.49L391.83 328.74L396.97 328.99L401.98 329.23L406.85 329.47L411.58 329.71L416.17 329.95L420.63 330.17L424.95 330.4L429.13 330.62L433.17 330.84L437.08 331.05L440.85 331.26L444.49 331.47L447.98 331.67L451.34 331.87L454.57 332.06L457.65 332.25L460.6 332.44L463.42 332.62L466.09 332.8L468.63 332.97L471.03 333.14L473.29 333.31L475.42 333.47L477.41 333.63L479.26 333.78L480.98 333.93L482.56 334.08L484 334.22L485.3 334.36L486.47 334.49L487.5 334.62L488.4 334.75L489.15 334.87L489.77 334.99L490.26 335.1L490.6 335.21L491.03 335.39L491.47 335.58L491.94 335.79L492.42 336.03L492.92 336.29L493.43 336.57L493.95 336.88L494.49 337.21L495.04 337.57L495.6 337.95L496.17 338.37L496.75 338.81L497.33 339.28L497.92 339.79L498.51 340.32L499.1 340.89L499.69 341.49L500.29 342.12L500.88 342.79L501.47 343.5L502.06 344.24L502.65 345.02L503.22 345.84L503.79 346.7L504.35 347.6L504.9 348.54L505.44 349.53L505.97 350.55L506.49 351.62L506.99 352.74L507.47 353.9L507.94 355.11L508.38 356.36L508.81 357.66L509.22 359.02L509.6 360.42L509.97 361.87L510.3 363.38L510.62 364.94L510.9 366.55L511.15 368.11L511.39 369.7L511.61 371.33L511.82 372.99L512.02 374.69L512.21 376.41L512.38 378.17L512.55 379.97L512.7 381.8L512.83 383.66L512.96 385.55L513.07 387.48L513.17 389.44L513.26 391.44L513.34 393.47L513.4 395.53L513.45 397.62L513.49 399.75L513.52 401.92L513.54 404.11L513.54 406.34L513.53 408.6L513.5 410.9L513.47 413.23L513.42 415.59L513.36 417.99L513.29 420.42L513.21 422.88L513.11 425.38L513 427.91L512.88 430.47L512.75 433.07L512.6 435.7L512.44 438.36L512.27 441.06L512.09 443.79L511.89 446.56L511.69 449.35L511.47 452.19L511.24 455.05L507.58 456.23L504.01 457.39L500.5 458.52L497.07 459.63L493.72 460.71L490.44 461.76L487.23 462.79L484.09 463.79L481.03 464.76L478.05 465.71L475.13 466.64L472.29 467.53L469.53 468.4L466.84 469.25L464.22 470.07L461.67 470.86L459.2 471.63L456.81 472.37L454.48 473.09L452.23 473.78L450.06 474.44L447.96 475.08L445.93 475.69L443.98 476.28L442.09 476.84L440.29 477.37L438.56 477.88L436.9 478.36L435.31 478.82L433.8 479.25L432.36 479.65L431 480.03L429.71 480.38L428.49 480.71L427.35 481.01L426.28 481.28L425.28 481.53L424.36 481.75L423.52 481.95L422.74 482.12L422 482.26L421.25 482.38L420.49 482.47L419.73 482.54L418.95 482.58L418.17 482.6L417.37 482.59L416.57 482.55L415.76 482.49L414.94 482.4L414.12 482.29L413.28 482.15L412.44 481.98L411.59 481.79L410.72 481.58L409.85 481.33L408.98 481.06L408.09 480.77L407.19 480.45L406.29 480.1L405.38 479.73L404.46 479.33L403.53 478.91L402.59 478.46L401.64 477.99L400.68 477.49L399.72 476.96L398.75 476.41L397.77 475.83L396.78 475.22L395.78 474.59L394.77 473.94L393.76 473.26L392.73 472.55L391.7 471.82L390.66 471.06L389.61 470.27L388.55 469.46L387.48 468.63L386.41 467.76L351.55 351.74L396.22 367.31L369.89 327.7L375.58 327.97L381.14 328.23ZM435.72 377.02L434.47 377.21L433.24 377.47L432.01 377.8L430.81 378.19L429.63 378.65L428.48 379.18L427.35 379.77L426.25 380.43L425.19 381.15L424.17 381.94L423.18 382.8L422.24 383.71L421.34 384.69L420.5 385.73L419.72 386.83L419.01 387.95L418.37 389.1L417.81 390.27L417.32 391.47L416.9 392.69L416.56 393.92L416.29 395.16L416.08 396.41L415.95 397.67L415.89 398.94L415.9 400.2L415.97 401.46L416.12 402.72L416.33 403.97L416.61 405.2L416.96 406.43L417.38 407.63L417.86 408.81L418.41 409.97L419.03 411.1L419.71 412.21L420.45 413.28L421.26 414.31L422.13 415.3L423.07 416.26L424.07 417.16L425.13 418.02L426.24 418.82L427.38 419.55L428.55 420.2L429.74 420.78L430.95 421.29L432.18 421.72L433.42 422.09L434.68 422.38L435.94 422.6L437.21 422.76L438.48 422.84L439.75 422.85L441.02 422.8L442.28 422.68L443.53 422.48L444.76 422.22L445.99 421.9L447.19 421.5L448.37 421.04L449.52 420.52L450.65 419.92L451.75 419.26L452.81 418.54L453.83 417.75L454.82 416.9L455.76 415.98L456.66 415L457.5 413.96L458.28 412.87L458.99 411.75L459.63 410.6L460.19 409.42L460.68 408.23L461.1 407.01L461.44 405.78L461.71 404.54L461.92 403.28L462.05 402.02L462.11 400.76L462.1 399.49L462.03 398.23L461.88 396.98L461.67 395.73L461.39 394.49L461.04 393.27L460.62 392.07L460.14 390.88L459.59 389.72L458.97 388.59L458.29 387.49L457.55 386.42L456.74 385.39L455.87 384.39L454.93 383.44L453.93 382.53L452.87 381.67L451.76 380.87L450.62 380.15L449.45 379.5L448.26 378.92L447.05 378.41L445.82 377.97L444.58 377.61L443.32 377.32L442.06 377.09L440.79 376.94L439.52 376.86L438.25 376.84L436.98 376.9L435.72 377.02Z" id="bDhJzZkrm"></path><path d="M195.23 232.74L294.15 302.67L249.38 317.92L294.51 332.91L289.86 336.2L285.33 339.42L280.9 342.55L276.59 345.6L272.38 348.57L268.29 351.46L264.31 354.27L260.43 357L256.67 359.64L253.02 362.21L249.48 364.69L246.05 367.09L242.72 369.41L239.51 371.65L236.41 373.81L233.42 375.88L230.54 377.88L227.77 379.79L225.12 381.63L222.57 383.38L220.13 385.05L217.8 386.64L215.59 388.14L213.48 389.57L211.48 390.91L209.6 392.18L207.82 393.36L206.16 394.46L204.6 395.48L203.16 396.42L201.82 397.28L200.6 398.05L199.49 398.75L198.48 399.36L197.59 399.89L196.81 400.34L196.14 400.71L195.58 401L195.13 401.21L194.79 401.33L194.34 401.46L193.88 401.58L193.38 401.7L192.85 401.81L192.3 401.91L191.72 402.01L191.12 402.09L190.49 402.16L189.84 402.22L189.16 402.26L188.46 402.28L187.73 402.29L186.98 402.27L186.21 402.24L185.41 402.18L184.6 402.1L183.76 401.99L182.9 401.86L182.02 401.7L181.12 401.5L180.2 401.28L179.26 401.02L178.3 400.73L177.32 400.41L176.32 400.05L175.31 399.64L174.28 399.2L173.23 398.72L172.17 398.19L171.09 397.62L169.99 397L168.88 396.34L167.75 395.63L166.61 394.87L165.46 394.05L164.29 393.18L163.11 392.26L161.92 391.28L160.71 390.25L159.5 389.15L158.34 388.08L157.17 386.97L155.99 385.82L154.8 384.64L153.6 383.43L152.39 382.19L151.17 380.91L149.93 379.59L148.69 378.25L147.43 376.86L146.17 375.45L144.89 374L143.6 372.52L142.3 371L141 369.45L139.68 367.86L138.34 366.24L137 364.59L135.65 362.9L134.28 361.18L132.91 359.43L131.52 357.64L130.13 355.82L128.72 353.96L127.3 352.07L125.87 350.14L124.43 348.19L122.98 346.19L121.52 344.17L120.05 342.11L118.56 340.01L117.07 337.88L115.56 335.72L114.05 333.52L112.52 331.29L110.98 329.03L109.43 326.73L107.87 324.4L106.3 322.03L104.72 319.64L106.87 316.45L108.98 313.34L111.04 310.29L113.06 307.31L115.04 304.39L116.98 301.54L118.87 298.75L120.72 296.04L122.53 293.38L124.3 290.79L126.03 288.27L127.71 285.82L129.36 283.43L130.96 281.1L132.51 278.85L134.03 276.65L135.5 274.53L136.93 272.47L138.32 270.47L139.67 268.54L140.98 266.68L142.24 264.88L143.46 263.15L144.64 261.49L145.77 259.89L146.87 258.35L147.92 256.89L148.93 255.49L149.9 254.15L150.83 252.88L151.71 251.68L152.55 250.54L153.35 249.47L154.11 248.46L154.82 247.52L155.5 246.65L156.13 245.84L156.72 245.09L157.26 244.42L157.77 243.81L158.26 243.24L158.78 242.68L159.32 242.14L159.88 241.62L160.47 241.11L161.08 240.61L161.71 240.13L162.36 239.67L163.04 239.22L163.74 238.78L164.46 238.36L165.2 237.96L165.97 237.57L166.76 237.19L167.57 236.83L168.4 236.49L169.26 236.16L170.14 235.84L171.04 235.54L171.97 235.26L172.92 234.99L173.89 234.74L174.88 234.5L175.9 234.27L176.94 234.06L178 233.87L179.08 233.69L180.19 233.53L181.32 233.38L182.47 233.24L183.64 233.13L184.84 233.02L186.06 232.93L187.3 232.86L188.57 232.8L189.86 232.76L191.17 232.73L192.5 232.72L193.86 232.72L195.23 232.74ZM192.65 295.96L191.33 296.17L190.03 296.44L188.77 296.79L187.53 297.2L186.33 297.68L185.16 298.22L184.03 298.82L182.93 299.48L181.88 300.2L180.87 300.97L179.91 301.8L178.99 302.67L178.12 303.59L177.31 304.56L176.55 305.57L175.84 306.62L175.2 307.71L174.61 308.83L174.09 309.99L173.63 311.19L173.24 312.41L172.92 313.66L172.67 314.94L172.49 316.24L172.39 317.57L172.36 318.91L172.42 320.25L172.55 321.57L172.76 322.87L173.04 324.14L173.39 325.39L173.81 326.6L174.3 327.78L174.85 328.93L175.46 330.04L176.13 331.12L176.86 332.15L177.65 333.14L178.48 334.09L179.37 334.99L180.31 335.84L181.29 336.64L182.32 337.39L183.39 338.08L184.5 338.71L185.65 339.29L186.83 339.8L188.04 340.25L189.29 340.64L190.56 340.95L191.86 341.2L193.19 341.37L194.54 341.47L195.9 341.49L197.27 341.44L198.61 341.31L199.93 341.1L201.23 340.83L202.49 340.48L203.73 340.07L204.93 339.59L206.1 339.05L207.24 338.44L208.33 337.78L209.38 337.07L210.39 336.3L211.36 335.47L212.27 334.6L213.14 333.68L213.95 332.71L214.71 331.7L215.42 330.65L216.07 329.56L216.65 328.43L217.17 327.27L217.63 326.08L218.02 324.86L218.35 323.6L218.6 322.33L218.77 321.02L218.87 319.7L218.9 318.36L218.84 317.02L218.71 315.69L218.5 314.4L218.22 313.13L217.87 311.88L217.45 310.67L216.96 309.48L216.41 308.34L215.8 307.22L215.13 306.15L214.4 305.12L213.61 304.12L212.78 303.18L211.89 302.28L210.95 301.43L209.97 300.63L208.94 299.88L207.87 299.19L206.76 298.55L205.62 297.98L204.43 297.46L203.22 297.02L201.97 296.63L200.7 296.32L199.4 296.07L198.07 295.9L196.73 295.8L195.36 295.78L193.99 295.83L192.65 295.96Z" id="bkUqDRSVS"></path><path d="M274.85 105.12L278.33 106.31L281.74 107.48L285.08 108.63L288.33 109.75L291.52 110.85L294.63 111.93L297.66 112.98L300.62 114.01L303.51 115.02L306.32 116L309.06 116.96L311.72 117.9L314.31 118.81L316.82 119.7L319.26 120.56L321.62 121.4L323.91 122.22L326.12 123.02L328.26 123.79L330.33 124.54L332.32 125.26L334.23 125.97L336.07 126.64L337.84 127.3L339.53 127.93L341.15 128.54L342.69 129.12L344.16 129.68L345.55 130.22L346.87 130.74L348.11 131.23L349.28 131.69L350.38 132.14L351.4 132.56L352.34 132.96L353.21 133.33L354.01 133.68L354.73 134.01L355.41 134.34L356.08 134.69L356.75 135.07L357.4 135.48L358.05 135.91L358.68 136.36L359.31 136.85L359.93 137.36L360.54 137.89L361.15 138.45L361.74 139.04L362.33 139.65L362.9 140.29L363.47 140.95L364.03 141.64L364.58 142.36L365.12 143.1L365.66 143.87L366.18 144.66L366.7 145.48L367.21 146.32L367.71 147.19L368.2 148.09L368.68 149.01L369.15 149.96L369.62 150.93L370.08 151.93L370.52 152.96L370.96 154.01L371.39 155.08L371.82 156.19L372.23 157.31L372.63 158.47L373.03 159.65L373.42 160.85L373.8 162.09L374.17 163.34L374.53 164.63L374.88 165.94L375.23 167.27L333.63 281.04L307.19 241.82L304.54 289.31L300.14 285.69L295.85 282.15L291.67 278.7L287.59 275.33L283.62 272.05L279.76 268.86L276.01 265.75L272.37 262.73L268.83 259.79L265.4 256.93L262.07 254.16L258.86 251.48L255.75 248.88L252.75 246.37L249.85 243.94L247.07 241.6L244.39 239.35L241.82 237.17L239.35 235.09L236.99 233.09L234.74 231.17L232.6 229.34L230.57 227.6L228.64 225.94L226.82 224.36L225.1 222.87L223.5 221.47L222 220.15L220.61 218.92L219.32 217.77L218.15 216.7L217.08 215.73L216.12 214.83L215.26 214.03L214.52 213.31L213.88 212.67L213.34 212.12L212.92 211.65L212.6 211.27L212.39 210.98L212.15 210.58L211.91 210.16L211.67 209.71L211.42 209.23L211.18 208.73L210.94 208.2L210.7 207.64L210.47 207.05L210.24 206.43L210.03 205.79L209.82 205.11L209.62 204.42L209.44 203.69L209.27 202.93L209.12 202.15L208.98 201.34L208.87 200.5L208.77 199.64L208.7 198.75L208.65 197.83L208.62 196.88L208.62 195.91L208.65 194.9L208.71 193.88L208.8 192.82L208.92 191.74L209.08 190.62L209.27 189.49L209.5 188.32L209.77 187.13L210.08 185.91L210.43 184.66L210.82 183.39L211.26 182.09L211.74 180.76L212.27 179.41L212.85 178.03L213.49 176.62L214.17 175.19L214.91 173.73L215.64 172.33L216.41 170.91L217.2 169.47L218.03 168.02L218.89 166.54L219.77 165.04L220.69 163.53L221.63 161.99L222.61 160.44L223.61 158.87L224.64 157.28L225.71 155.66L226.8 154.03L227.93 152.38L229.08 150.71L230.27 149.02L231.48 147.31L232.73 145.59L234 143.84L235.3 142.07L236.64 140.29L238 138.48L239.39 136.66L240.82 134.81L242.27 132.95L243.75 131.06L245.27 129.16L246.81 127.24L248.38 125.3L249.99 123.34L251.62 121.36L253.28 119.36L254.98 117.34L256.7 115.3L258.45 113.24L260.23 111.17L262.05 109.07L263.89 106.95L265.76 104.82L267.66 102.66L271.29 103.9L274.85 105.12ZM289.98 167.01L288.68 167.18L287.37 167.43L286.07 167.76L284.79 168.16L283.55 168.63L282.35 169.18L281.2 169.78L280.09 170.44L279.03 171.17L278.01 171.95L277.05 172.78L276.14 173.66L275.27 174.59L274.47 175.57L273.72 176.58L273.02 177.64L272.39 178.73L271.81 179.86L271.29 181.02L270.84 182.2L270.45 183.42L270.13 184.65L269.88 185.91L269.69 187.19L269.58 188.48L269.53 189.78L269.56 191.09L269.66 192.41L269.84 193.74L270.1 195.06L270.44 196.39L270.85 197.69L271.33 198.95L271.87 200.17L272.48 201.35L273.14 202.48L273.86 203.57L274.64 204.6L275.47 205.59L276.35 206.53L277.27 207.41L278.24 208.24L279.25 209.01L280.29 209.72L281.38 210.38L282.49 210.98L283.64 211.51L284.81 211.98L286.01 212.38L287.23 212.72L288.47 212.99L289.73 213.19L291 213.32L292.28 213.38L293.58 213.36L294.88 213.27L296.18 213.1L297.48 212.85L298.79 212.52L300.07 212.12L301.31 211.64L302.5 211.1L303.66 210.5L304.77 209.84L305.83 209.11L306.84 208.33L307.81 207.5L308.72 206.62L309.58 205.69L310.39 204.71L311.14 203.7L311.83 202.64L312.47 201.55L313.05 200.42L313.56 199.26L314.01 198.08L314.4 196.86L314.72 195.63L314.98 194.37L315.16 193.09L315.28 191.8L315.32 190.5L315.29 189.19L315.19 187.87L315.01 186.54L314.75 185.22L314.42 183.89L314.01 182.59L313.53 181.33L312.99 180.11L312.38 178.93L311.71 177.8L310.99 176.71L310.21 175.68L309.39 174.69L308.51 173.75L307.58 172.87L306.62 172.04L305.61 171.27L304.56 170.55L303.48 169.9L302.36 169.3L301.22 168.77L300.04 168.3L298.84 167.9L297.62 167.56L296.38 167.29L295.13 167.09L293.85 166.96L292.57 166.9L291.28 166.92L289.98 167.01Z" id="a3JOROspSU"></path><path d="M424.33 164.18L425.87 164.28L427.46 164.43L429.08 164.61L430.65 164.82L432.24 165.04L433.87 165.29L435.52 165.56L437.2 165.85L438.91 166.16L440.65 166.49L442.42 166.85L444.21 167.22L446.04 167.62L447.89 168.04L449.77 168.48L451.68 168.94L453.62 169.42L455.58 169.92L457.58 170.45L459.6 170.99L461.65 171.56L463.74 172.15L465.85 172.76L467.98 173.39L470.15 174.04L472.35 174.72L474.57 175.41L476.82 176.13L479.1 176.86L481.41 177.62L483.75 178.4L486.12 179.21L488.51 180.03L490.93 180.87L493.39 181.74L495.87 182.63L498.38 183.54L500.91 184.47L503.48 185.42L506.08 186.39L508.7 187.38L511.35 188.4L514.03 189.43L514.13 193.27L514.22 197.03L514.31 200.71L514.4 204.31L514.48 207.84L514.56 211.28L514.63 214.65L514.7 217.94L514.76 221.15L514.83 224.28L514.88 227.34L514.94 230.32L514.99 233.22L515.03 236.04L515.07 238.78L515.11 241.45L515.15 244.03L515.18 246.54L515.2 248.97L515.23 251.32L515.24 253.6L515.26 255.79L515.27 257.91L515.27 259.95L515.28 261.91L515.28 263.8L515.27 265.6L515.26 267.33L515.25 268.98L515.23 270.55L515.21 272.05L515.19 273.46L515.16 274.8L515.12 276.06L515.09 277.24L515.05 278.34L515 279.37L514.95 280.31L514.9 281.18L514.84 281.97L514.77 282.72L514.67 283.48L514.55 284.23L514.39 284.98L514.21 285.74L514 286.49L513.77 287.25L513.51 288.01L513.22 288.77L512.9 289.53L512.56 290.29L512.19 291.05L511.79 291.81L511.36 292.58L510.91 293.34L510.43 294.1L509.92 294.87L509.39 295.64L508.83 296.41L508.24 297.17L507.62 297.94L506.98 298.71L506.31 299.48L505.61 300.26L504.89 301.03L504.14 301.8L503.36 302.58L502.55 303.35L501.72 304.13L500.86 304.91L499.97 305.69L499.06 306.47L498.11 307.25L497.14 308.03L496.15 308.81L495.12 309.59L494.07 310.38L493 311.16L491.89 311.95L490.76 312.73L369.62 313.19L397.23 274.79L351.78 288.77L353.65 283.39L355.47 278.14L357.26 273.02L359 268.03L360.7 263.17L362.36 258.45L363.97 253.85L365.55 249.38L367.07 245.04L368.56 240.83L370 236.76L371.4 232.81L372.76 228.99L374.08 225.31L375.35 221.75L376.58 218.32L377.77 215.03L378.91 211.86L380.01 208.83L381.07 205.92L382.09 203.15L383.06 200.5L383.99 197.99L384.88 195.6L385.72 193.35L386.53 191.23L387.29 189.23L388 187.37L388.68 185.64L389.31 184.03L389.9 182.56L390.44 181.22L390.95 180.01L391.41 178.93L391.82 177.98L392.2 177.15L392.53 176.46L392.82 175.9L393.07 175.47L393.27 175.17L393.56 174.81L393.87 174.44L394.21 174.06L394.57 173.66L394.96 173.26L395.37 172.85L395.82 172.43L396.29 172.01L396.79 171.58L397.32 171.16L397.88 170.73L398.46 170.3L399.08 169.88L399.73 169.46L400.41 169.04L401.13 168.64L401.87 168.24L402.65 167.85L403.46 167.47L404.31 167.1L405.18 166.75L406.1 166.41L407.05 166.09L408.03 165.79L409.06 165.51L410.11 165.25L411.21 165.01L412.34 164.79L413.52 164.6L414.73 164.44L415.98 164.31L417.27 164.2L418.6 164.13L419.97 164.09L421.38 164.08L422.84 164.11L424.33 164.18ZM437.99 220.2L436.73 220.39L435.47 220.66L434.21 221L432.98 221.41L431.76 221.89L430.55 222.45L429.38 223.08L428.22 223.78L427.09 224.55L426.01 225.39L425 226.28L424.04 227.21L423.15 228.19L422.31 229.2L421.55 230.26L420.85 231.35L420.21 232.47L419.63 233.61L419.13 234.79L418.69 235.98L418.31 237.19L418 238.42L417.76 239.67L417.59 240.92L417.49 242.18L417.46 243.44L417.49 244.71L417.6 245.97L417.78 247.23L418.02 248.48L418.34 249.72L418.74 250.94L419.2 252.15L419.74 253.33L420.35 254.5L421.04 255.63L421.8 256.74L422.62 257.8L423.49 258.8L424.42 259.73L425.38 260.61L426.39 261.42L427.44 262.16L428.52 262.84L429.64 263.46L430.78 264.01L431.95 264.49L433.14 264.91L434.36 265.26L435.59 265.55L436.84 265.77L438.09 265.91L439.36 266L440.63 266.01L441.9 265.95L443.17 265.82L444.44 265.63L445.7 265.36L446.95 265.02L448.19 264.61L449.41 264.13L450.61 263.57L451.79 262.94L452.94 262.24L454.07 261.47L455.15 260.63L456.17 259.74L457.13 258.81L458.02 257.83L458.85 256.82L459.62 255.76L460.32 254.67L460.96 253.55L461.53 252.41L462.04 251.23L462.48 250.04L462.85 248.83L463.16 247.6L463.4 246.35L463.57 245.1L463.67 243.84L463.71 242.58L463.67 241.31L463.57 240.05L463.39 238.79L463.14 237.54L462.82 236.3L462.43 235.08L461.96 233.87L461.43 232.69L460.82 231.52L460.13 230.39L459.37 229.28L458.55 228.22L457.67 227.22L456.75 226.29L455.78 225.41L454.77 224.6L453.73 223.86L452.64 223.18L451.53 222.56L450.39 222.01L449.21 221.53L448.02 221.11L446.81 220.76L445.57 220.47L444.33 220.26L443.07 220.11L441.81 220.03L440.54 220.01L439.26 220.07L437.99 220.2Z" id="bazJZJ90l"></path><path d="M335.13 358.84L336.68 364.32L338.19 369.67L339.65 374.89L341.08 379.98L342.47 384.93L343.82 389.76L345.13 394.46L346.4 399.02L347.63 403.45L348.82 407.75L349.97 411.92L351.08 415.96L352.15 419.87L353.18 423.64L354.17 427.29L355.13 430.8L356.04 434.18L356.92 437.43L357.75 440.55L358.54 443.54L359.3 446.4L360.02 449.12L360.69 451.72L361.33 454.18L361.93 456.51L362.48 458.71L363 460.78L363.48 462.72L363.92 464.52L364.32 466.2L364.68 467.74L365 469.16L365.28 470.44L365.52 471.59L365.73 472.61L365.89 473.5L366.01 474.25L366.09 474.88L366.14 475.37L366.14 475.73L366.11 476.19L366.07 476.68L366.02 477.18L365.94 477.72L365.86 478.27L365.75 478.85L365.63 479.44L365.48 480.06L365.31 480.69L365.12 481.34L364.91 482.01L364.67 482.7L364.41 483.4L364.12 484.12L363.8 484.85L363.45 485.59L363.06 486.34L362.65 487.11L362.2 487.88L361.72 488.67L361.2 489.46L360.64 490.26L360.05 491.07L359.41 491.88L358.73 492.69L358.02 493.52L357.25 494.34L356.45 495.16L355.59 495.99L354.69 496.82L353.75 497.64L352.75 498.47L351.7 499.29L350.6 500.11L349.44 500.92L348.23 501.73L346.97 502.53L345.65 503.33L344.27 504.12L342.83 504.89L341.43 505.62L339.99 506.35L338.51 507.08L337.01 507.8L335.46 508.53L333.88 509.25L332.27 509.97L330.61 510.7L328.93 511.42L327.21 512.13L325.45 512.85L323.65 513.57L321.82 514.28L319.96 515L318.06 515.71L316.12 516.42L314.15 517.14L312.14 517.85L310.1 518.55L308.02 519.26L305.91 519.97L303.76 520.67L301.57 521.38L299.35 522.08L297.09 522.78L294.8 523.48L292.47 524.18L290.11 524.88L287.71 525.58L285.27 526.27L282.8 526.97L280.3 527.66L277.76 528.36L275.18 529.05L272.56 529.74L269.92 530.43L267.23 531.12L264.51 531.8L261.76 532.49L258.96 533.17L256.69 530.08L254.46 527.05L252.28 524.09L250.15 521.18L248.06 518.34L246.03 515.56L244.04 512.84L242.1 510.18L240.21 507.59L238.36 505.05L236.57 502.58L234.82 500.17L233.12 497.82L231.47 495.53L229.86 493.31L228.3 491.15L226.79 489.04L225.33 487L223.92 485.03L222.56 483.11L221.24 481.26L219.97 479.46L218.75 477.73L217.58 476.06L216.45 474.46L215.37 472.91L214.34 471.43L213.36 470.01L212.43 468.65L211.54 467.35L210.71 466.11L209.92 464.94L209.17 463.82L208.48 462.77L207.83 461.78L207.24 460.86L206.69 459.99L206.18 459.19L205.73 458.45L205.32 457.76L204.95 457.11L204.6 456.43L204.28 455.74L203.97 455.04L203.69 454.31L203.42 453.58L203.18 452.82L202.96 452.05L202.77 451.26L202.59 450.46L202.44 449.64L202.31 448.8L202.2 447.95L202.11 447.08L202.04 446.19L202 445.29L201.97 444.37L201.97 443.44L201.99 442.49L202.04 441.52L202.1 440.54L202.19 439.54L202.3 438.52L202.42 437.49L202.58 436.44L202.75 435.37L202.94 434.29L203.16 433.2L203.4 432.08L203.66 430.95L203.94 429.81L204.25 428.64L204.57 427.46L204.92 426.27L205.29 425.06L205.68 423.83L206.09 422.58L206.53 421.32L206.98 420.05L207.46 418.75L306.53 349.03L305.87 396.33L335.13 358.84ZM285.79 424.17L284.53 424.37L283.3 424.64L282.08 424.98L280.88 425.39L279.71 425.86L278.56 426.4L277.45 426.99L276.36 427.65L275.31 428.37L274.3 429.14L273.33 429.97L272.41 430.86L271.53 431.8L270.7 432.8L269.92 433.84L269.19 434.94L268.52 436.08L267.92 437.27L267.37 438.5L266.89 439.78L266.49 441.09L266.16 442.4L265.91 443.71L265.73 445.03L265.63 446.33L265.61 447.64L265.66 448.93L265.77 450.22L265.96 451.48L266.22 452.74L266.54 453.97L266.93 455.18L267.38 456.36L267.89 457.52L268.47 458.64L269.11 459.74L269.8 460.79L270.56 461.81L271.37 462.78L272.23 463.71L273.15 464.59L274.12 465.43L275.14 466.21L276.22 466.93L277.34 467.59L278.5 468.2L279.72 468.74L280.97 469.21L282.25 469.61L283.54 469.92L284.84 470.16L286.13 470.33L287.42 470.41L288.7 470.42L289.98 470.36L291.25 470.23L292.5 470.03L293.74 469.75L294.96 469.41L296.15 469.01L297.33 468.53L298.47 468L299.59 467.4L300.67 466.74L301.72 466.03L302.73 465.25L303.7 464.42L304.63 463.53L305.51 462.59L306.34 461.6L307.12 460.55L307.84 459.46L308.51 458.32L309.12 457.12L309.66 455.89L310.14 454.61L310.55 453.3L310.88 451.99L311.13 450.68L311.3 449.37L311.4 448.06L311.42 446.76L311.38 445.46L311.26 444.18L311.07 442.91L310.82 441.66L310.49 440.43L310.11 439.22L309.65 438.03L309.14 436.88L308.56 435.75L307.93 434.66L307.23 433.6L306.48 432.59L305.67 431.61L304.8 430.68L303.88 429.8L302.91 428.97L301.89 428.19L300.82 427.47L299.7 426.8L298.53 426.2L297.32 425.66L296.06 425.18L294.78 424.79L293.49 424.47L292.2 424.23L290.91 424.07L289.62 423.98L288.33 423.97L287.05 424.03L285.79 424.17Z" id="i3ICAJ4bSf"></path></defs><g><g><g><use xlink:href="#e34uIjiyg9" opacity="1" fill="#b53137" fill-opacity="1"></use></g><g><use xlink:href="#bDhJzZkrm" opacity="1" fill="#4a454a" fill-opacity="1"></use><g><use xlink:href="#bDhJzZkrm" opacity="1" fill-opacity="0" stroke="#000000" stroke-width="1" stroke-opacity="1"></use></g></g><g><use xlink:href="#bkUqDRSVS" opacity="1" fill="#4a454a" fill-opacity="1"></use><g><use xlink:href="#bkUqDRSVS" opacity="1" fill-opacity="0" stroke="#000000" stroke-width="1" stroke-opacity="1"></use></g></g><g><use xlink:href="#a3JOROspSU" opacity="1" fill="#4a454a" fill-opacity="1"></use><g><use xlink:href="#a3JOROspSU" opacity="1" fill-opacity="0" stroke="#000000" stroke-width="1" stroke-opacity="1"></use></g></g><g><use xlink:href="#bazJZJ90l" opacity="1" fill="#4a454a" fill-opacity="1"></use><g><use xlink:href="#bazJZJ90l" opacity="1" fill-opacity="0" stroke="#000000" stroke-width="1" stroke-opacity="1"></use></g></g><g><use xlink:href="#i3ICAJ4bSf" opacity="1" fill="#4a454a" fill-opacity="1"></use><g><use xlink:href="#i3ICAJ4bSf" opacity="1" fill-opacity="0" stroke="#000000" stroke-width="1" stroke-opacity="1"></use></g></g></g></g></svg>