<?xml version="1.0" encoding="UTF-8" standalone="no"?>
<!DOCTYPE svg PUBLIC "-//W3C//DTD SVG 1.1//EN" "http://www.w3.org/Graphics/SVG/1.1/DTD/svg11.dtd">
<svg version="1.1" xmlns="http://www.w3.org/2000/svg" xmlns:xlink="http://www.w3.org/1999/xlink" preserveAspectRatio="xMidYMid meet" viewBox="0 0 640 640" width="100" height="100"><defs><path d="M570 334.69C570 472.67 457.98 584.69 320 584.69C182.02 584.69 70 472.67 70 334.69C70 196.72 182.02 84.69 320 84.69C457.98 84.69 570 196.72 570 334.69Z" id="eS7eNQbm6"></path><path d="M362.11 336.11C362.11 357.65 343.96 375.14 321.6 375.14C299.24 375.14 281.09 357.65 281.09 336.11C281.09 314.57 299.24 297.08 321.6 297.08C343.96 297.08 362.11 314.57 362.11 336.11Z" id="a43egWTab8"></path><path d="M268.02 242.7C268.02 264.24 249.87 281.73 227.52 281.73C205.16 281.73 187.01 264.24 187.01 242.7C187.01 221.16 205.16 203.67 227.52 203.67C249.87 203.67 268.02 221.16 268.02 242.7Z" id="aiPXz8Or7"></path><path d="M457.41 434.54C457.41 456.09 439.26 473.58 416.9 473.58C394.55 473.58 376.4 456.09 376.4 434.54C376.4 413 394.55 395.51 416.9 395.51C439.26 395.51 457.41 413 457.41 434.54Z" id="b1IBvvUf7p"></path><path d="M461.83 240.74C461.83 262.28 443.68 279.77 421.32 279.77C398.97 279.77 380.82 262.28 380.82 240.74C380.82 219.19 398.97 201.7 421.32 201.7C443.68 201.7 461.83 219.19 461.83 240.74Z" id="eqtlypPm"></path><path d="M268.02 433.07C268.02 454.61 249.87 472.1 227.52 472.1C205.16 472.1 187.01 454.61 187.01 433.07C187.01 411.53 205.16 394.04 227.52 394.04C249.87 394.04 268.02 411.53 268.02 433.07Z" id="bbmwLZXWu"></path></defs><g><g><g><use xlink:href="#eS7eNQbm6" opacity="1" fill="#ecebdf" fill-opacity="1"></use><g><use xlink:href="#eS7eNQbm6" opacity="1" fill-opacity="0" stroke="#000000" stroke-width="0" stroke-opacity="1"></use></g></g><g><use xlink:href="#a43egWTab8" opacity="1" fill="#110f50" fill-opacity="1"></use><g><use xlink:href="#a43egWTab8" opacity="1" fill-opacity="0" stroke="#ffffff" stroke-width="0" stroke-opacity="1"></use></g></g><g><use xlink:href="#aiPXz8Or7" opacity="1" fill="#110f50" fill-opacity="1"></use><g><use xlink:href="#aiPXz8Or7" opacity="1" fill-opacity="0" stroke="#ffffff" stroke-width="0" stroke-opacity="1"></use></g></g><g><use xlink:href="#b1IBvvUf7p" opacity="1" fill="#110f50" fill-opacity="1"></use><g><use xlink:href="#b1IBvvUf7p" opacity="1" fill-opacity="0" stroke="#ffffff" stroke-width="0" stroke-opacity="1"></use></g></g><g><use xlink:href="#eqtlypPm" opacity="1" fill="#110f50" fill-opacity="1"></use><g><use xlink:href="#eqtlypPm" opacity="1" fill-opacity="0" stroke="#ffffff" stroke-width="0" stroke-opacity="1"></use></g></g><g><use xlink:href="#bbmwLZXWu" opacity="1" fill="#110f50" fill-opacity="1"></use><g><use xlink:href="#bbmwLZXWu" opacity="1" fill-opacity="0" stroke="#ffffff" stroke-width="0" stroke-opacity="1"></use></g></g></g></g></svg>